<?xml version="1.0" encoding="UTF-8"?>
<svg id="_Слой_1" data-name="Слой 1" xmlns="http://www.w3.org/2000/svg" xmlns:xlink="http://www.w3.org/1999/xlink" viewBox="0 0 264.21 244.61">
  <defs>
    <style>
      .cls-1 {
        fill: url(#_Безымянный_градиент_42);
      }

      .cls-2 {
        fill: #ef8008;
      }

      .cls-3 {
        fill: #3c3c3b;
      }
    </style>
    <linearGradient id="_Безымянный_градиент_42" data-name="Безымянный градиент 42" x1="27" y1="122.81" x2="239.68" y2="122.81" gradientUnits="userSpaceOnUse">
      <stop offset="0" stop-color="#00773c"/>
      <stop offset=".49" stop-color="#629139"/>
      <stop offset=".55" stop-color="#6e9949"/>
      <stop offset=".67" stop-color="#90b173"/>
      <stop offset=".84" stop-color="#c5d6b6"/>
      <stop offset="1" stop-color="#fff"/>
    </linearGradient>
  </defs>
  <path class="cls-1" d="M223.89,184.82c2,0,3.62-1.62,3.62-3.62s-1.62-3.62-3.62-3.62-3.62,1.62-3.62,3.62,1.62,3.62,3.62,3.62ZM217.76,192.92c1.82,0,3.29-1.47,3.29-3.29s-1.47-3.29-3.29-3.29-3.29,1.47-3.29,3.29,1.47,3.29,3.29,3.29ZM210.85,201.36c2.17,0,3.92-1.76,3.92-3.92s-1.76-3.92-3.92-3.92-3.92,1.76-3.92,3.92,1.76,3.92,3.92,3.92ZM203.22,208.45c2.17,0,3.92-1.76,3.92-3.92s-1.76-3.92-3.92-3.92-3.92,1.76-3.92,3.92,1.76,3.92,3.92,3.92ZM194.94,214.68c2.11,0,3.82-1.71,3.82-3.82s-1.71-3.82-3.82-3.82-3.82,1.71-3.82,3.82,1.71,3.82,3.82,3.82ZM186.09,219.9c1.96,0,3.54-1.59,3.54-3.54s-1.59-3.54-3.54-3.54-3.54,1.59-3.54,3.54,1.59,3.54,3.54,3.54ZM176.74,223.81c1.57,0,2.83-1.27,2.83-2.83s-1.27-2.83-2.83-2.83-2.83,1.27-2.83,2.83,1.27,2.83,2.83,2.83ZM167,227.96c1.82,0,3.29-1.47,3.29-3.29s-1.47-3.29-3.29-3.29-3.29,1.47-3.29,3.29,1.47,3.29,3.29,3.29ZM156.95,230.42c1.66,0,3.01-1.35,3.01-3.01s-1.35-3.01-3.01-3.01-3.01,1.35-3.01,3.01,1.35,3.01,3.01,3.01ZM146.67,231.74c1.43,0,2.58-1.16,2.58-2.58s-1.16-2.58-2.58-2.58-2.58,1.16-2.58,2.58,1.16,2.58,2.58,2.58ZM136.28,232.27c1.3,0,2.35-1.05,2.35-2.35s-1.05-2.35-2.35-2.35-2.35,1.05-2.35,2.35,1.05,2.35,2.35,2.35ZM125.86,231.84c1.2,0,2.18-.97,2.18-2.18s-.97-2.18-2.18-2.18-2.18.97-2.18,2.18.97,2.18,2.18,2.18ZM115.52,230.66c1.24,0,2.25-1.01,2.25-2.25s-1.01-2.25-2.25-2.25-2.25,1.01-2.25,2.25,1.01,2.25,2.25,2.25ZM105.34,228.51c1.3,0,2.35-1.05,2.35-2.35s-1.05-2.35-2.35-2.35-2.35,1.05-2.35,2.35,1.05,2.35,2.35,2.35ZM95.43,224.46c.84,0,1.52-.68,1.52-1.52s-.68-1.52-1.52-1.52-1.52.68-1.52,1.52.68,1.52,1.52,1.52ZM85.87,221.01c1.23,0,2.23-1,2.23-2.23s-1-2.23-2.23-2.23-2.23,1-2.23,2.23,1,2.23,2.23,2.23ZM76.77,215.71c1.1,0,2-.9,2-2s-.9-2-2-2-2,.9-2,2,.9,2,2,2ZM68.19,209.87c1.15,0,2.07-.93,2.07-2.08s-.93-2.07-2.07-2.07-2.08.93-2.08,2.07.93,2.08,2.08,2.08ZM60.22,203.15c1.15,0,2.08-.93,2.08-2.08s-.93-2.08-2.08-2.08-2.07.93-2.07,2.08.93,2.08,2.07,2.08ZM52.95,195.34c.95,0,1.72-.77,1.72-1.72s-.77-1.72-1.72-1.72-1.72.77-1.72,1.72.77,1.72,1.72,1.72ZM46.42,187.36c1.03,0,1.87-.84,1.87-1.87s-.84-1.87-1.87-1.87-1.87.84-1.87,1.87.84,1.87,1.87,1.87ZM40.71,178.9c1.17,0,2.13-.95,2.13-2.13s-.95-2.13-2.13-2.13-2.13.95-2.13,2.13.95,2.13,2.13,2.13ZM35.87,80.39c2.07,0,3.75-1.68,3.75-3.75s-1.68-3.75-3.75-3.75-3.75,1.68-3.75,3.75,1.68,3.75,3.75,3.75ZM40.71,71.52c2.26,0,4.1-1.84,4.1-4.1s-1.84-4.1-4.1-4.1-4.1,1.84-4.1,4.1,1.84,4.1,4.1,4.1ZM46.42,62.55c2.12,0,3.85-1.72,3.85-3.85s-1.72-3.85-3.85-3.85-3.85,1.72-3.85,3.85,1.72,3.85,3.85,3.85ZM52.95,54.2c2,0,3.62-1.62,3.62-3.62s-1.62-3.62-3.62-3.62-3.62,1.62-3.62,3.62,1.62,3.62,3.62,3.62ZM60.22,47.25c2.28,0,4.12-1.85,4.12-4.12s-1.85-4.12-4.12-4.12-4.12,1.85-4.12,4.12,1.85,4.12,4.12,4.12ZM68.19,40.43c2.22,0,4.02-1.8,4.02-4.02s-1.8-4.02-4.02-4.02-4.02,1.8-4.02,4.02,1.8,4.02,4.02,4.02ZM76.77,34.08c1.98,0,3.59-1.61,3.59-3.59s-1.61-3.59-3.59-3.59-3.59,1.61-3.59,3.59,1.61,3.59,3.59,3.59ZM85.87,29.47c2.24,0,4.05-1.81,4.05-4.05s-1.81-4.05-4.05-4.05-4.05,1.81-4.05,4.05,1.81,4.05,4.05,4.05ZM95.43,25.15c2.15,0,3.9-1.74,3.9-3.9s-1.74-3.9-3.9-3.9-3.9,1.74-3.9,3.9,1.74,3.9,3.9,3.9ZM105.34,21.86c2.11,0,3.82-1.71,3.82-3.82s-1.71-3.82-3.82-3.82-3.82,1.71-3.82,3.82,1.71,3.82,3.82,3.82ZM115.52,18.65c1.58,0,2.86-1.28,2.86-2.86s-1.28-2.86-2.86-2.86-2.86,1.28-2.86,2.86,1.28,2.86,2.86,2.86ZM125.86,17.57c1.68,0,3.04-1.36,3.04-3.04s-1.36-3.04-3.04-3.04-3.04,1.36-3.04,3.04,1.36,3.04,3.04,3.04ZM136.28,17.26c1.65,0,2.99-1.34,2.99-2.99s-1.34-2.99-2.99-2.99-2.99,1.34-2.99,2.99,1.34,2.99,2.99,2.99ZM146.67,17.84c1.55,0,2.81-1.26,2.81-2.81s-1.26-2.81-2.81-2.81-2.81,1.26-2.81,2.81,1.26,2.81,2.81,2.81ZM156.95,19.88c1.71,0,3.09-1.38,3.09-3.09s-1.38-3.09-3.09-3.09-3.09,1.38-3.09,3.09,1.38,3.09,3.09,3.09ZM167,22.51c1.65,0,2.99-1.34,2.99-2.99s-1.34-2.99-2.99-2.99-2.99,1.34-2.99,2.99,1.34,2.99,2.99,2.99ZM176.74,26c1.54,0,2.78-1.25,2.78-2.78s-1.25-2.78-2.78-2.78-2.78,1.25-2.78,2.78,1.25,2.78,2.78,2.78ZM186.09,30.52c1.48,0,2.68-1.2,2.68-2.68s-1.2-2.68-2.68-2.68-2.68,1.2-2.68,2.68,1.2,2.68,2.68,2.68ZM194.94,36.02c1.48,0,2.68-1.2,2.68-2.68s-1.2-2.68-2.68-2.68-2.68,1.2-2.68,2.68,1.2,2.68,2.68,2.68ZM203.22,41.94c1.26,0,2.28-1.02,2.28-2.28s-1.02-2.28-2.28-2.28-2.28,1.02-2.28,2.28,1.02,2.28,2.28,2.28ZM210.85,49.01c1.24,0,2.25-1.01,2.25-2.25s-1.01-2.25-2.25-2.25-2.25,1.01-2.25,2.25,1.01,2.25,2.25,2.25ZM217.76,57.14c1.43,0,2.58-1.16,2.58-2.58s-1.16-2.58-2.58-2.58-2.58,1.16-2.58,2.58,1.16,2.58,2.58,2.58ZM223.89,65.47c1.37,0,2.48-1.11,2.48-2.48s-1.11-2.48-2.48-2.48-2.48,1.11-2.48,2.48,1.11,2.48,2.48,2.48ZM229.17,74.25c1.26,0,2.28-1.02,2.28-2.28s-1.02-2.28-2.28-2.28-2.28,1.02-2.28,2.28,1.02,2.28,2.28,2.28ZM233.56,83.91c1.37,0,2.48-1.11,2.48-2.48s-1.11-2.48-2.48-2.48-2.48,1.11-2.48,2.48,1.11,2.48,2.48,2.48ZM233.38,185.26c1.98,0,3.59-1.61,3.59-3.59s-1.61-3.59-3.59-3.59-3.59,1.61-3.59,3.59,1.61,3.59,3.59,3.59ZM227.64,193.2c1.57,0,2.83-1.27,2.83-2.83s-1.27-2.83-2.83-2.83-2.83,1.27-2.83,2.83,1.27,2.83,2.83,2.83ZM221.14,201.76c1.79,0,3.24-1.45,3.24-3.24s-1.45-3.24-3.24-3.24-3.24,1.45-3.24,3.24,1.45,3.24,3.24,3.24ZM213.94,209.44c1.87,0,3.39-1.52,3.39-3.39s-1.52-3.39-3.39-3.39-3.39,1.52-3.39,3.39,1.52,3.39,3.39,3.39ZM206.09,216.14c1.79,0,3.24-1.45,3.24-3.24s-1.45-3.24-3.24-3.24-3.24,1.45-3.24,3.24,1.45,3.24,3.24,3.24ZM197.66,221.71c1.48,0,2.68-1.2,2.68-2.68s-1.2-2.68-2.68-2.68-2.68,1.2-2.68,2.68,1.2,2.68,2.68,2.68ZM188.71,226.17c.99,0,1.8-.8,1.8-1.8s-.8-1.8-1.8-1.8-1.8.8-1.8,1.8.8,1.8,1.8,1.8ZM179.32,231.53c1.45,0,2.63-1.18,2.63-2.63s-1.18-2.63-2.63-2.63-2.63,1.18-2.63,2.63,1.18,2.63,2.63,2.63ZM169.56,233.9c.74,0,1.34-.6,1.34-1.34s-.6-1.34-1.34-1.34-1.34.6-1.34,1.34.6,1.34,1.34,1.34ZM159.52,237.51c1.2,0,2.18-.97,2.18-2.18s-.97-2.18-2.18-2.18-2.18.97-2.18,2.18.97,2.18,2.18,2.18ZM149.26,239.62c1.34,0,2.43-1.09,2.43-2.43s-1.09-2.43-2.43-2.43-2.43,1.09-2.43,2.43,1.09,2.43,2.43,2.43ZM138.88,240.61c1.37,0,2.48-1.11,2.48-2.48s-1.11-2.48-2.48-2.48-2.48,1.11-2.48,2.48,1.11,2.48,2.48,2.48ZM128.46,240.53c1.33,0,2.4-1.08,2.4-2.4s-1.08-2.4-2.4-2.4-2.4,1.08-2.4,2.4,1.08,2.4,2.4,2.4ZM118.08,239.17c1.09,0,1.97-.88,1.97-1.97s-.88-1.97-1.97-1.97-1.97.88-1.97,1.97.88,1.97,1.97,1.97ZM107.83,236.95c.89,0,1.62-.73,1.62-1.62s-.73-1.62-1.62-1.62-1.62.73-1.62,1.62.73,1.62,1.62,1.62ZM97.78,233.78c.67,0,1.21-.54,1.21-1.21s-.54-1.21-1.21-1.21-1.21.54-1.21,1.21.54,1.21,1.21,1.21ZM88.02,230.87c1.09,0,1.97-.88,1.97-1.97s-.88-1.97-1.97-1.97-1.97.88-1.97,1.97.88,1.97,1.97,1.97ZM78.63,225.77c.77,0,1.39-.62,1.39-1.39s-.62-1.39-1.39-1.39-1.39.62-1.39,1.39.62,1.39,1.39,1.39ZM69.69,220.9c1.03,0,1.87-.84,1.87-1.87s-.84-1.87-1.87-1.87-1.87.84-1.87,1.87.84,1.87,1.87,1.87ZM61.26,214.98c1.15,0,2.08-.93,2.08-2.08s-.93-2.07-2.08-2.07-2.07.93-2.07,2.07.93,2.08,2.07,2.08ZM53.41,208.12c1.15,0,2.07-.93,2.07-2.08s-.93-2.08-2.07-2.08-2.08.93-2.08,2.08.93,2.08,2.08,2.08ZM46.21,200.54c1.12,0,2.02-.91,2.02-2.02s-.91-2.02-2.02-2.02-2.02.91-2.02,2.02.91,2.02,2.02,2.02ZM39.71,192.27c1.05,0,1.9-.85,1.9-1.9s-.85-1.9-1.9-1.9-1.9.85-1.9,1.9.85,1.9,1.9,1.9ZM33.97,183.09c.78,0,1.42-.63,1.42-1.42s-.63-1.42-1.42-1.42-1.42.63-1.42,1.42.63,1.42,1.42,1.42ZM29.03,174.52c1.12,0,2.02-.91,2.02-2.02s-.91-2.02-2.02-2.02-2.02.91-2.02,2.02.91,2.02,2.02,2.02ZM33.97,64.27c.96,0,1.75-.78,1.75-1.75s-.78-1.75-1.75-1.75-1.75.78-1.75,1.75.78,1.75,1.75,1.75ZM39.71,56.26c1.34,0,2.43-1.09,2.43-2.43s-1.09-2.43-2.43-2.43-2.43,1.09-2.43,2.43,1.09,2.43,2.43,2.43ZM46.21,48.44c1.52,0,2.76-1.24,2.76-2.76s-1.24-2.76-2.76-2.76-2.76,1.24-2.76,2.76,1.24,2.76,2.76,2.76ZM53.41,40.91c1.52,0,2.76-1.24,2.76-2.76s-1.24-2.76-2.76-2.76-2.76,1.24-2.76,2.76,1.24,2.76,2.76,2.76ZM61.26,33.64c1.3,0,2.35-1.05,2.35-2.35s-1.05-2.35-2.35-2.35-2.35,1.05-2.35,2.35,1.05,2.35,2.35,2.35ZM69.69,28.76c1.98,0,3.59-1.61,3.59-3.59s-1.61-3.59-3.59-3.59-3.59,1.61-3.59,3.59,1.61,3.59,3.59,3.59ZM78.63,22.58c1.52,0,2.76-1.24,2.76-2.76s-1.24-2.76-2.76-2.76-2.76,1.24-2.76,2.76,1.24,2.76,2.76,2.76ZM88.02,16.54c.68,0,1.24-.56,1.24-1.24s-.56-1.24-1.24-1.24-1.24.56-1.24,1.24.56,1.24,1.24,1.24ZM97.78,13.63c1.1,0,2-.9,2-2s-.9-2-2-2-2,.9-2,2,.9,2,2,2ZM107.83,11.55c1.48,0,2.68-1.2,2.68-2.68s-1.2-2.68-2.68-2.68-2.68,1.2-2.68,2.68,1.2,2.68,2.68,2.68ZM118.08,7.74c.41,0,.73-.33.73-.73s-.33-.73-.73-.73-.73.33-.73.73.33.73.73.73ZM128.46,7.13c.59,0,1.06-.48,1.06-1.06s-.48-1.06-1.06-1.06-1.06.48-1.06,1.06.48,1.06,1.06,1.06ZM138.88,7.13c.59,0,1.06-.48,1.06-1.06s-.48-1.06-1.06-1.06-1.06.48-1.06,1.06.48,1.06,1.06,1.06ZM149.26,7.89c.49,0,.89-.4.89-.89s-.4-.89-.89-.89-.89.4-.89.89.4.89.89.89ZM159.52,11.39c1.4,0,2.53-1.13,2.53-2.53s-1.13-2.53-2.53-2.53-2.53,1.13-2.53,2.53,1.13,2.53,2.53,2.53ZM169.56,13.23c.88,0,1.59-.71,1.59-1.59s-.71-1.59-1.59-1.59-1.59.71-1.59,1.59.71,1.59,1.59,1.59ZM179.32,16.21c.5,0,.91-.41.91-.91s-.41-.91-.91-.91-.91.41-.91.91.41.91.91.91ZM188.71,21.74c1.06,0,1.92-.86,1.92-1.92s-.86-1.92-1.92-1.92-1.92.86-1.92,1.92.86,1.92,1.92,1.92ZM197.66,27.32c1.19,0,2.15-.96,2.15-2.15s-.96-2.15-2.15-2.15-2.15.96-2.15,2.15.96,2.15,2.15,2.15ZM206.09,32.88c.88,0,1.59-.71,1.59-1.59s-.71-1.59-1.59-1.59-1.59.71-1.59,1.59.71,1.59,1.59,1.59ZM213.94,39.79c.91,0,1.64-.74,1.64-1.64s-.74-1.64-1.64-1.64-1.64.74-1.64,1.64.74,1.64,1.64,1.64ZM221.14,47.17c.82,0,1.49-.67,1.49-1.49s-.67-1.49-1.49-1.49-1.49.67-1.49,1.49.67,1.49,1.49,1.49ZM227.64,55.12c.71,0,1.29-.58,1.29-1.29s-.58-1.29-1.29-1.29-1.29.58-1.29,1.29.58,1.29,1.29,1.29ZM233.38,64.3c.98,0,1.77-.79,1.77-1.77s-.79-1.77-1.77-1.77-1.77.79-1.77,1.77.79,1.77,1.77,1.77ZM238.32,73.07c.75,0,1.37-.61,1.37-1.37s-.61-1.37-1.37-1.37-1.37.61-1.37,1.37.61,1.37,1.37,1.37Z"/>
  <g>
    <path class="cls-2" d="M15.45,122.82c0-2.1-5.84-1.32-3.97-10.67l5.53-28.04h8.26l10.9,45.96c.47,3.43,3.04,7.63,4.05,8.33v.23h-14.33v-.23c.86-.62,1.09-3.9.47-6.93l-.31-1.4-8.8-38.79h-.16l-.31,20.72c-.16,10.13,5.76,8.96,5.76,11.22,0,2.1-6-.23-6.07,5.45v1.4c0,3.43.93,7.63,1.95,8.33v.23H4.08v-.23c1.01-.7,3.19-4.91,3.74-8.33l.23-1.17c1.25-6.54,7.4-3.82,7.4-6.07Z"/>
    <path class="cls-2" d="M71.68,136.53c0-2.96-3.43,1.4-10.44,4.99-3.04,1.56-6.54,3.74-9.04,3.97-13.71,2.02-7.71-13.32,1.01-17.53-6.23-1.32-9.5-5.61-9.5-14.25,0-10.52,4.99-14.64,14.25-14.64,3.9,0,7.01.78,9.35,2.41v-.55c.16-4.99,2.18-7.87,4.67-7.87,2.34,0,5.06,1.56,5.06,5.76,0,3.97-2.34,4.67-5.14,6.7h-.23c2.8-4.28,1.25-7.09-.7-7.09-1.25,0-2.18,1.4-2.88,3.74,2.57,2.34,3.97,6.08,3.97,11.53,0,10.59-5.06,14.72-14.1,14.72h-.16c-5.14,1.25-15.89,10.75-7.01,9.89,2.65-.23,8.33-4.52,11.61-7.24,7.48-6.23,10.75-2.41,10.28,4.91-.62,12.39-10.13,17.84-16.05,17.84l-6.62-5.92c5.22,0,21.65-7.79,21.65-11.37ZM62.73,113.71c0-10.75-2.1-13.16-4.75-13.16-2.8,0-4.91,2.41-4.91,13.16,0,10.13,2.02,13.09,4.67,13.24h.23c2.65,0,4.75-2.8,4.75-13.24Z"/>
    <path class="cls-2" d="M82.04,130.07v-30.38h11.45v.23c-1.01.7-2.1,4.91-2.1,8.33v12.93h.23l.39-9.35c.31-8.33,3.74-13.09,7.87-13.09,3.89,0,6.31,2.57,6.31,8.88,0,7.32-6.78,11.29-11.37,14.64h-.39c4.6-7.09,4.99-14.64,2.26-14.64-2.96,0-5.06,10.75-5.22,24.15.31,3.04,1.17,6,2.03,6.62v.23h-13.55v-.23c1.01-.7,2.1-4.91,2.1-8.33Z"/>
    <path class="cls-2" d="M109.69,119.08c0-14.33,4.99-20.02,14.25-20.02s14.1,5.69,14.1,20.02-5.06,20.17-14.1,20.17-14.25-5.69-14.25-20.17ZM128.69,119.08c0-14.64-2.1-17.99-4.75-17.99-2.8,0-4.91,3.35-4.91,17.99s2.1,18.15,4.91,18.15c2.65,0,4.75-3.82,4.75-18.15Z"/>
    <path class="cls-2" d="M141.54,138.4c1.01-.7,2.1-4.91,2.1-8.33v-37.39c0-3.43-1.09-7.63-2.1-8.33v-.23h26.25v17.91h-.39c0-7.01-7.56-10.13-13.4-10.13h-1.01v12.39h2.26c3.43,0,6.07-1.09,6.78-2.1h.23v6.54h-.23c-.7-1.01-3.35-2.1-6.78-2.1h-2.26v23.44c0,3.43,1.09,7.63,2.1,8.33v.23h-13.55v-.23Z"/>
    <path class="cls-2" d="M168.02,119.08c0-14.33,4.99-20.02,14.25-20.02s14.1,5.69,14.1,20.02-5.06,20.17-14.1,20.17-14.25-5.69-14.25-20.17ZM187.02,119.08c0-14.64-2.1-17.99-4.75-17.99-2.8,0-4.91,3.35-4.91,17.99s2.1,18.15,4.91,18.15c2.65,0,4.75-3.82,4.75-18.15Z"/>
    <path class="cls-2" d="M200.8,119.08c0-14.33,4.99-20.02,14.25-20.02s14.1,5.69,14.1,20.02-5.06,20.17-14.1,20.17-14.25-5.69-14.25-20.17ZM219.81,119.08c0-14.64-2.1-17.99-4.75-17.99-2.8,0-4.91,3.35-4.91,17.99s2.1,18.15,4.91,18.15c2.65,0,4.75-3.82,4.75-18.15Z"/>
    <path class="cls-2" d="M233.28,116.75c0-5.84,1.4-17.99,8.41-17.99,4.13,0,7.56,4.75,7.87,13.09l.39,9.35h.23v-17.37c0-6.31-1.09-18.77-2.1-19.47v-.23h11.45v45.96c0,3.43,1.09,7.63,2.1,8.33v.23h-11.45v-4.05c-1.25,2.26-3.12,4.05-6.15,4.05-9.35,0-10.75-6.39-10.75-21.89ZM246.52,136.14c2.57,0,3.35-8.02,3.43-11.22-.7-10.05-2.49-17.29-4.21-17.29s-3.12,5.84-3.12,11.68c0,11.84,1.56,16.82,3.89,16.82Z"/>
  </g>
  <path class="cls-3" d="M130.67,166.85l-.05.05c-.31.09-.63.17-.95.23-.33.06-.61.16-.86.28h-2v-5.77c-.44.9-1.04,1.73-1.82,2.49-.78.76-1.68,1.41-2.7,1.96-1.02.54-2.14.97-3.35,1.28-1.21.31-2.45.47-3.73.47s-2.5-.21-3.59-.63c-1.09-.42-2.03-1.01-2.82-1.77-.79-.76-1.41-1.66-1.86-2.7-.45-1.04-.67-2.18-.67-3.42v-13.6c0-.47-.3-.7-.88-.7v-.93h4.84v15.19c0,.84.17,1.6.51,2.3.34.7.82,1.3,1.42,1.81.61.51,1.33.91,2.17,1.21.84.29,1.75.44,2.75.44,1.12,0,2.2-.09,3.24-.28,1.04-.19,1.99-.45,2.86-.79.87-.34,1.62-.75,2.26-1.23.64-.48,1.11-1,1.42-1.56v-15.52c0-.46-.29-.7-.88-.7v-.93h2.89v.05h1.96v19.47c0,1.55.45,2.2,1.35,1.96v.93c-.22.06-.44.12-.65.19-.22.06-.45.12-.7.19v.05h-.14Z"/>
  <path class="cls-3" d="M135.77,145.43l-.09-.51c.16-.06.31-.11.47-.14.16-.03.31-.08.47-.14v-.05h.14c.65-.19,1.29-.36,1.91-.51h1.96v5.12c.62-.81,1.34-1.55,2.17-2.24.82-.68,1.69-1.27,2.61-1.77.91-.5,1.85-.88,2.82-1.16.96-.28,1.88-.42,2.75-.42,2.45,0,4.35.55,5.68,1.65,1.33,1.1,2.19,2.55,2.56,4.35v-.42c.62-.81,1.35-1.55,2.19-2.24.84-.68,1.72-1.27,2.65-1.77.93-.5,1.89-.88,2.86-1.16.98-.28,1.93-.42,2.86-.42,1.49,0,2.76.21,3.82.63,1.05.42,1.93,1,2.63,1.75s1.21,1.63,1.54,2.65c.33,1.02.49,2.14.49,3.35v13.78c0,.47.29.7.88.7v.93h-5.73v-.93c.59,0,.88-.23.88-.7v-13.78c0-1.58-.49-2.89-1.47-3.91s-2.54-1.54-4.68-1.54c-.96,0-1.9.08-2.82.23-.92.16-1.77.37-2.56.65s-1.5.61-2.12.98c-.62.37-1.1.78-1.44,1.21.16.84.23,1.63.23,2.38v13.74c0,.47.29.7.88.7v.93h-5.73v-.93c.59,0,.88-.23.88-.7v-13.74c0-1.58-.49-2.89-1.47-3.91s-2.54-1.54-4.68-1.54c-.93,0-1.84.08-2.72.23-.88.16-1.72.37-2.49.65s-1.47.61-2.07.98-1.08.78-1.42,1.21v16.11c0,.47.29.7.88.7v.93h-5.73v-.93c.59,0,.88-.23.88-.7v-17.51c0-.65-.08-1.23-.23-1.75-.16-.51-.37-.86-.65-1.05Z"/>
  <path class="cls-3" d="M182.6,145.43l-.09-.51c.16-.06.31-.11.47-.14.16-.03.31-.08.47-.14v-.05h.14c.65-.19,1.29-.36,1.91-.51h1.96v5.12c.62-.81,1.34-1.55,2.17-2.24.82-.68,1.69-1.27,2.61-1.77.91-.5,1.85-.88,2.82-1.16.96-.28,1.88-.42,2.75-.42,2.45,0,4.35.55,5.68,1.65,1.33,1.1,2.19,2.55,2.56,4.35v-.42c.62-.81,1.35-1.55,2.19-2.24.84-.68,1.72-1.27,2.65-1.77.93-.5,1.89-.88,2.86-1.16.98-.28,1.93-.42,2.86-.42,1.49,0,2.76.21,3.82.63,1.05.42,1.93,1,2.63,1.75s1.21,1.63,1.54,2.65c.33,1.02.49,2.14.49,3.35v13.78c0,.47.29.7.88.7v.93h-5.73v-.93c.59,0,.88-.23.88-.7v-13.78c0-1.58-.49-2.89-1.47-3.91s-2.54-1.54-4.68-1.54c-.96,0-1.9.08-2.82.23-.92.16-1.77.37-2.56.65s-1.5.61-2.12.98c-.62.37-1.1.78-1.44,1.21.16.84.23,1.63.23,2.38v13.74c0,.47.29.7.88.7v.93h-5.73v-.93c.59,0,.88-.23.88-.7v-13.74c0-1.58-.49-2.89-1.47-3.91s-2.54-1.54-4.68-1.54c-.93,0-1.84.08-2.72.23-.88.16-1.72.37-2.49.65s-1.47.61-2.07.98-1.08.78-1.42,1.21v16.11c0,.47.29.7.88.7v.93h-5.73v-.93c.59,0,.88-.23.88-.7v-17.51c0-.65-.08-1.23-.23-1.75-.16-.51-.37-.86-.65-1.05Z"/>
  <path class="cls-3" d="M229.9,145.43l-.09-.51c.16-.06.31-.11.47-.14.16-.03.31-.08.47-.14v-.05h.14c.65-.19,1.29-.36,1.91-.51h1.96v21.65c0,.47.29.7.88.7v.93h-5.73v-.93c.59,0,.88-.23.88-.7v-17.51c0-.65-.08-1.23-.23-1.75-.16-.51-.37-.86-.65-1.05Z"/>
  <path class="cls-3" d="M256.33,144.08v2.1h-9.22l-.09,14.62c0,1.8.44,3.11,1.33,3.93.88.82,2.03,1.23,3.42,1.23s2.54-.3,3.61-.91c1.07-.6,1.78-1.39,2.12-2.35l.47.19c-.25.71-.62,1.37-1.12,1.98-.5.61-1.08,1.13-1.75,1.56-.67.44-1.39.78-2.17,1.02s-1.57.37-2.37.37c-2.14,0-3.91-.64-5.31-1.91-1.4-1.27-2.1-3.27-2.1-6.01v-13.79h-3.03v-.47l6.71-5.17h.28v3.59h9.22Z"/>
  <path class="cls-3" d="M98.16,157.25c-1.45-1.31-3.49-2.31-6.18-3.02-2.51-.69-4.46-1.57-5.84-2.66-1.38-1.08-2.06-2.17-2.06-3.25,0-1.31.53-2.38,1.57-3.23,1.06-.83,2.44-1.25,4.11-1.25,1.48,0,2.88.26,4.18.79,1.06.44,1.99,1.08,2.81,1.91.79.85,1.38,1.76,1.71,2.75h.65v-3.55h-.6l-.19.05c.07-.04-.21-.18-.83-.42-1.17-.47-2.37-.92-3.59-1.25-1.35-.36-2.74-.51-4.14-.51-1.25,0-2.38.16-3.42.46-1.04.32-1.94.74-2.68,1.27-.74.53-1.32,1.16-1.75,1.91-.42.74-.64,1.55-.64,2.42,0,1.5.78,2.93,2.33,4.31,1.55,1.39,3.78,2.47,6.67,3.25,2.22.62,3.95,1.39,5.17,2.33,1.2.92,1.82,1.89,1.82,2.88,0,1.5-.58,2.73-1.73,3.71-1.15.99-2.63,1.46-4.43,1.46-1.64,0-3.21-.39-4.69-1.16-.88-.42-1.71-1.09-2.52-1.99-.81-.9-1.38-1.82-1.71-2.75l-.19-.42h-.65l-2.15.05-75.09.95v1.44c.49,0,70.43-.07,78.11,1.75.98.23,1.92.55,2.84.95.44.19.81.39,1.09.53.74.28,1.54.49,2.36.65.85.16,1.71.23,2.61.23,1.34,0,2.58-.16,3.71-.48,1.13-.34,2.1-.78,2.91-1.36.81-.56,1.45-1.25,1.91-2.06.48-.81.71-1.68.71-2.61,0-1.39-.72-2.75-2.17-4.06Z"/>
</svg>