<?xml version="1.0" encoding="UTF-8"?>
<svg id="_Слой_1" data-name="Слой 1" xmlns="http://www.w3.org/2000/svg" viewBox="0 0 643.41 215.69">
  <defs>
    <style>
      .cls-1 {
        fill: #ef8008;
      }

      .cls-2 {
        fill: #3c3c3b;
      }
    </style>
  </defs>
  <g>
    <path class="cls-1" d="M35.72,98.37c0-5.16-14.34-3.25-9.75-26.19L39.54,3.34h20.27l26.77,112.8c1.15,8.41,7.46,18.74,9.94,20.46v.57h-35.18v-.57c2.1-1.53,2.68-9.56,1.15-17.02l-.76-3.44L40.12,20.93h-.38l-.77,50.86c-.38,24.86,14.15,21.99,14.15,27.53,0,5.16-14.72-.58-14.91,13.38v3.44c0,8.41,2.29,18.74,4.78,20.46v.57H7.8v-.57c2.48-1.72,7.84-12.05,9.18-20.46l.57-2.87c3.06-16.06,18.16-9.37,18.16-14.91Z"/>
    <path class="cls-1" d="M173.75,132.02c0-7.26-8.41,3.44-25.62,12.24-7.45,3.82-16.06,9.18-22.18,9.75-33.65,4.97-18.93-32.7,2.49-43.02-15.3-3.25-23.33-13.77-23.33-34.99,0-25.81,12.24-35.94,34.99-35.94,9.56,0,17.21,1.91,22.94,5.93v-1.34c.38-12.24,5.35-19.31,11.47-19.31,5.74,0,12.43,3.82,12.43,14.15,0,9.75-5.74,11.47-12.62,16.44h-.57c6.88-10.52,3.06-17.4-1.72-17.4-3.06,0-5.35,3.44-7.07,9.18,6.31,5.74,9.75,14.91,9.75,28.3,0,26-12.43,36.14-34.61,36.14h-.38c-12.62,3.06-39,26.38-17.21,24.28,6.5-.57,20.46-11.09,28.49-17.78,18.35-15.3,26.38-5.93,25.24,12.04-1.53,30.4-24.86,43.78-39.39,43.78l-16.25-14.53c12.81,0,53.15-19.12,53.15-27.91ZM151.76,76c0-26.38-5.16-32.31-11.66-32.31-6.88,0-12.04,5.93-12.04,32.31,0,24.86,4.97,32.12,11.47,32.5h.57c6.5,0,11.66-6.88,11.66-32.5Z"/>
    <path class="cls-1" d="M199.16,116.15V41.58h28.11v.57c-2.49,1.72-5.16,12.05-5.16,20.46v31.74h.57l.96-22.94c.77-20.46,9.18-32.12,19.31-32.12,9.56,0,15.49,6.31,15.49,21.8,0,17.97-16.63,27.72-27.91,35.95h-.96c11.28-17.4,12.24-35.95,5.54-35.95-7.26,0-12.43,26.38-12.81,59.27.77,7.46,2.87,14.72,4.97,16.25v.57h-33.27v-.57c2.48-1.72,5.16-12.05,5.16-20.46Z"/>
    <path class="cls-1" d="M267.03,89.19c0-35.18,12.24-49.14,34.99-49.14s34.61,13.96,34.61,49.14-12.43,49.52-34.61,49.52-34.99-13.96-34.99-49.52ZM313.68,89.19c0-35.94-5.16-44.17-11.66-44.17-6.88,0-12.04,8.22-12.04,44.17s5.16,44.55,12.04,44.55c6.5,0,11.66-9.37,11.66-44.55Z"/>
    <path class="cls-1" d="M345.21,136.61c2.48-1.72,5.16-12.05,5.16-20.46V24.37c0-8.41-2.68-18.74-5.16-20.46v-.57h64.43v43.97h-.96c0-17.21-18.55-24.86-32.89-24.86h-2.48v30.4h5.55c8.41,0,14.91-2.68,16.63-5.16h.57v16.06h-.57c-1.72-2.48-8.22-5.16-16.63-5.16h-5.55v57.55c0,8.41,2.68,18.74,5.16,20.46v.57h-33.27v-.57Z"/>
    <path class="cls-1" d="M410.21,89.19c0-35.18,12.24-49.14,34.99-49.14s34.61,13.96,34.61,49.14-12.43,49.52-34.61,49.52-34.99-13.96-34.99-49.52ZM456.86,89.19c0-35.94-5.16-44.17-11.66-44.17-6.88,0-12.04,8.22-12.04,44.17s5.16,44.55,12.04,44.55c6.5,0,11.66-9.37,11.66-44.55Z"/>
    <path class="cls-1" d="M490.69,89.19c0-35.18,12.24-49.14,34.99-49.14s34.61,13.96,34.61,49.14-12.43,49.52-34.61,49.52-34.99-13.96-34.99-49.52ZM537.34,89.19c0-35.94-5.16-44.17-11.66-44.17-6.88,0-12.04,8.22-12.04,44.17s5.16,44.55,12.04,44.55c6.5,0,11.66-9.37,11.66-44.55Z"/>
    <path class="cls-1" d="M570.4,83.45c0-14.34,3.44-44.17,20.65-44.17,10.13,0,18.55,11.66,19.31,32.12l.96,22.94h.57v-42.64c0-15.49-2.68-46.08-5.16-47.8v-.57h28.11v112.8c0,8.41,2.68,18.74,5.16,20.46v.57h-28.11v-9.94c-3.06,5.55-7.65,9.94-15.1,9.94-22.94,0-26.38-15.68-26.38-53.73ZM602.91,131.06c6.31,0,8.22-19.69,8.41-27.53-1.72-24.66-6.12-42.45-10.32-42.45s-7.65,14.34-7.65,28.68c0,29.06,3.82,41.3,9.56,41.3Z"/>
  </g>
  <path class="cls-2" d="M318.54,206.45l-.11.11c-.76.23-1.54.42-2.34.57-.8.15-1.51.38-2.11.69h-4.92v-14.17c-1.07,2.21-2.55,4.25-4.46,6.11-1.91,1.87-4.11,3.47-6.63,4.8-2.51,1.33-5.26,2.38-8.23,3.14-2.97.76-6.02,1.14-9.14,1.14s-6.14-.52-8.8-1.54c-2.67-1.03-4.97-2.48-6.92-4.34-1.94-1.87-3.47-4.08-4.57-6.63-1.1-2.55-1.66-5.35-1.66-8.4v-33.38c0-1.14-.73-1.72-2.17-1.72v-2.29h11.89v37.3c0,2.05.42,3.94,1.26,5.65.84,1.71,2,3.19,3.49,4.45,1.49,1.26,3.26,2.24,5.32,2.97,2.06.72,4.3,1.08,6.74,1.08,2.74,0,5.39-.23,7.94-.68,2.55-.45,4.9-1.1,7.03-1.94,2.13-.84,3.98-1.84,5.55-3.02,1.56-1.18,2.72-2.45,3.49-3.82v-38.09c0-1.14-.72-1.71-2.17-1.71v-2.29h7.09v.11h4.8v47.78c0,3.81,1.1,5.41,3.31,4.8v2.29c-.53.15-1.07.3-1.6.46-.54.15-1.11.31-1.72.46v.11h-.34Z"/>
  <path class="cls-2" d="M331.07,153.87l-.23-1.26c.38-.15.76-.27,1.14-.34.38-.07.76-.19,1.14-.34v-.11h.34c1.6-.46,3.16-.88,4.69-1.26h4.8v12.57c1.52-1.98,3.3-3.81,5.32-5.49,2.02-1.67,4.15-3.12,6.4-4.34,2.25-1.22,4.55-2.17,6.92-2.86,2.36-.69,4.61-1.03,6.74-1.03,6.02,0,10.67,1.35,13.95,4.06,3.28,2.7,5.37,6.27,6.29,10.69v-1.03c1.52-1.98,3.31-3.81,5.37-5.49,2.06-1.67,4.23-3.12,6.52-4.34,2.29-1.22,4.63-2.17,7.03-2.86,2.4-.69,4.75-1.03,7.03-1.03,3.66,0,6.78.51,9.37,1.54,2.59,1.03,4.74,2.46,6.46,4.29,1.72,1.83,2.97,4,3.77,6.52.8,2.51,1.2,5.26,1.2,8.23v33.84c0,1.14.72,1.72,2.17,1.72v2.29h-14.06v-2.29c1.45,0,2.17-.57,2.17-1.72v-33.84c0-3.89-1.2-7.09-3.6-9.6-2.4-2.51-6.23-3.77-11.49-3.77-2.36,0-4.67.19-6.92.57-2.25.38-4.34.92-6.29,1.6-1.94.69-3.68,1.49-5.2,2.4-1.53.91-2.71,1.91-3.54,2.97.38,2.06.57,4,.57,5.83v33.72c0,1.14.72,1.72,2.17,1.72v2.29h-14.06v-2.29c1.45,0,2.17-.57,2.17-1.72v-33.72c0-3.89-1.2-7.09-3.6-9.6-2.4-2.51-6.23-3.77-11.49-3.77-2.29,0-4.52.19-6.69.57-2.17.38-4.21.92-6.12,1.6-1.91.69-3.6,1.49-5.09,2.4-1.49.91-2.65,1.91-3.49,2.97v39.55c0,1.14.72,1.72,2.17,1.72v2.29h-14.06v-2.29c1.45,0,2.17-.57,2.17-1.72v-42.98c0-1.6-.19-3.03-.57-4.29-.38-1.26-.92-2.11-1.6-2.57Z"/>
  <path class="cls-2" d="M446.02,153.87l-.23-1.26c.38-.15.76-.27,1.14-.34.38-.07.76-.19,1.14-.34v-.11h.34c1.6-.46,3.16-.88,4.69-1.26h4.8v12.57c1.52-1.98,3.3-3.81,5.32-5.49,2.02-1.67,4.15-3.12,6.4-4.34,2.25-1.22,4.55-2.17,6.92-2.86,2.36-.69,4.61-1.03,6.74-1.03,6.02,0,10.67,1.35,13.95,4.06,3.28,2.7,5.37,6.27,6.29,10.69v-1.03c1.52-1.98,3.31-3.81,5.37-5.49,2.06-1.67,4.23-3.12,6.52-4.34,2.29-1.22,4.63-2.17,7.03-2.86,2.4-.69,4.75-1.03,7.03-1.03,3.66,0,6.78.51,9.37,1.54,2.59,1.03,4.74,2.46,6.46,4.29,1.72,1.83,2.97,4,3.77,6.52.8,2.51,1.2,5.26,1.2,8.23v33.84c0,1.14.72,1.72,2.17,1.72v2.29h-14.06v-2.29c1.45,0,2.17-.57,2.17-1.72v-33.84c0-3.89-1.2-7.09-3.6-9.6-2.4-2.51-6.23-3.77-11.49-3.77-2.36,0-4.67.19-6.92.57-2.25.38-4.34.92-6.29,1.6-1.94.69-3.68,1.49-5.2,2.4-1.53.91-2.71,1.91-3.54,2.97.38,2.06.57,4,.57,5.83v33.72c0,1.14.72,1.72,2.17,1.72v2.29h-14.06v-2.29c1.45,0,2.17-.57,2.17-1.72v-33.72c0-3.89-1.2-7.09-3.6-9.6-2.4-2.51-6.23-3.77-11.49-3.77-2.29,0-4.52.19-6.69.57-2.17.38-4.21.92-6.12,1.6-1.91.69-3.6,1.49-5.09,2.4-1.49.91-2.65,1.91-3.49,2.97v39.55c0,1.14.72,1.72,2.17,1.72v2.29h-14.06v-2.29c1.45,0,2.17-.57,2.17-1.72v-42.98c0-1.6-.19-3.03-.57-4.29-.38-1.26-.92-2.11-1.6-2.57Z"/>
  <path class="cls-2" d="M562.11,153.87l-.23-1.26c.38-.15.76-.27,1.14-.34.38-.07.76-.19,1.14-.34v-.11h.34c1.6-.46,3.16-.88,4.69-1.26h4.8v53.15c0,1.14.72,1.72,2.17,1.72v2.29h-14.06v-2.29c1.45,0,2.17-.57,2.17-1.72v-42.98c0-1.6-.19-3.03-.57-4.29-.38-1.26-.91-2.11-1.6-2.57Z"/>
  <path class="cls-2" d="M627,150.55v5.15h-22.63l-.23,35.89c0,4.42,1.08,7.64,3.26,9.66,2.17,2.02,4.97,3.03,8.4,3.03s6.23-.74,8.86-2.23c2.63-1.48,4.36-3.41,5.2-5.77l1.14.46c-.61,1.75-1.52,3.37-2.74,4.86-1.22,1.49-2.65,2.76-4.29,3.83-1.64,1.07-3.41,1.91-5.32,2.51-1.91.61-3.85.92-5.83.92-5.26,0-9.6-1.56-13.03-4.69-3.43-3.12-5.15-8.04-5.15-14.74v-33.84h-7.43v-1.14l16.46-12.69h.69v8.81h22.63Z"/>
  <path class="cls-2" d="M238.73,182.89c-3.55-3.21-8.58-5.67-15.16-7.41-6.15-1.69-10.96-3.85-14.34-6.54-3.38-2.64-5.07-5.33-5.07-7.97,0-3.21,1.3-5.85,3.85-7.93,2.6-2.04,5.98-3.08,10.09-3.08,3.64,0,7.06.65,10.27,1.95,2.6,1.08,4.89,2.64,6.89,4.68,1.95,2.08,3.38,4.33,4.2,6.76h1.6v-8.71h-1.47l-.48.13c.17-.09-.52-.43-2.04-1.04-2.88-1.15-5.82-2.27-8.82-3.07-3.3-.89-6.73-1.26-10.15-1.26-3.08,0-5.85.39-8.4,1.13-2.56.78-4.76,1.82-6.58,3.12-1.82,1.3-3.25,2.86-4.29,4.68-1.04,1.82-1.56,3.81-1.56,5.93,0,3.68,1.91,7.19,5.72,10.57,3.81,3.42,9.27,6.06,16.37,7.97,5.46,1.52,9.7,3.42,12.69,5.72,2.95,2.25,4.46,4.63,4.46,7.06,0,3.68-1.43,6.71-4.24,9.1-2.82,2.43-6.45,3.59-10.87,3.59-4.03,0-7.88-.95-11.52-2.86-2.17-1.04-4.2-2.69-6.19-4.89-1.99-2.21-3.38-4.46-4.2-6.76l-.48-1.04h-1.6l-5.28.13-184.32,2.34v3.54c1.19.02,172.89-.18,191.74,4.3,2.41.57,4.71,1.35,6.96,2.34,1.08.48,1.99.95,2.69,1.3,1.82.69,3.77,1.21,5.8,1.6,2.08.39,4.2.56,6.41.56,3.29,0,6.32-.39,9.1-1.17,2.77-.82,5.15-1.91,7.15-3.34,1.99-1.39,3.55-3.08,4.68-5.07,1.17-1.99,1.73-4.11,1.73-6.41,0-3.42-1.78-6.76-5.33-9.96Z"/>
</svg>