<?xml version="1.0" encoding="UTF-8"?>
<svg id="_Слой_1" data-name="Слой 1" xmlns="http://www.w3.org/2000/svg" viewBox="0 0 157.83 137.23">
  <defs>
    <style>
      .cls-1 {
        fill: #fff;
      }
    </style>
  </defs>
  <path class="cls-1" d="M130.96,100.73c1.03,0,1.87-.84,1.87-1.87s-.84-1.87-1.87-1.87-1.87.84-1.87,1.87.84,1.87,1.87,1.87ZM127.8,104.9c.94,0,1.7-.76,1.7-1.7s-.76-1.7-1.7-1.7-1.7.76-1.7,1.7.76,1.7,1.7,1.7ZM124.24,109.25c1.12,0,2.02-.91,2.02-2.02s-.91-2.02-2.02-2.02-2.02.91-2.02,2.02.91,2.02,2.02,2.02ZM120.31,112.91c1.12,0,2.02-.91,2.02-2.02s-.91-2.02-2.02-2.02-2.02.91-2.02,2.02.91,2.02,2.02,2.02ZM116.04,116.12c1.09,0,1.97-.88,1.97-1.97s-.88-1.97-1.97-1.97-1.97.88-1.97,1.97.88,1.97,1.97,1.97ZM111.48,118.81c1.01,0,1.83-.82,1.83-1.83s-.82-1.83-1.83-1.83-1.83.82-1.83,1.83.82,1.83,1.83,1.83ZM106.66,120.83c.81,0,1.46-.65,1.46-1.46s-.65-1.46-1.46-1.46-1.46.65-1.46,1.46.65,1.46,1.46,1.46ZM101.64,122.97c.94,0,1.7-.76,1.7-1.7s-.76-1.7-1.7-1.7-1.7.76-1.7,1.7.76,1.7,1.7,1.7ZM96.45,124.23c.86,0,1.55-.7,1.55-1.55s-.7-1.55-1.55-1.55-1.55.7-1.55,1.55.7,1.55,1.55,1.55ZM91.16,124.92c.73,0,1.33-.6,1.33-1.33s-.6-1.33-1.33-1.33-1.33.6-1.33,1.33.6,1.33,1.33,1.33ZM85.8,125.19c.67,0,1.21-.54,1.21-1.21s-.54-1.21-1.21-1.21-1.21.54-1.21,1.21.54,1.21,1.21,1.21ZM80.43,124.97c.62,0,1.12-.5,1.12-1.12s-.5-1.12-1.12-1.12-1.12.5-1.12,1.12.5,1.12,1.12,1.12ZM75.1,124.36c.64,0,1.16-.52,1.16-1.16s-.52-1.16-1.16-1.16-1.16.52-1.16,1.16.52,1.16,1.16,1.16ZM69.85,123.25c.67,0,1.21-.54,1.21-1.21s-.54-1.21-1.21-1.21-1.21.54-1.21,1.21.54,1.21,1.21,1.21ZM64.74,121.16c.43,0,.78-.35.78-.78s-.35-.78-.78-.78-.78.35-.78.78.35.78.78.78ZM59.81,119.38c.63,0,1.15-.51,1.15-1.15s-.51-1.15-1.15-1.15-1.15.51-1.15,1.15.51,1.15,1.15,1.15ZM55.12,116.65c.57,0,1.03-.46,1.03-1.03s-.46-1.03-1.03-1.03-1.03.46-1.03,1.03.46,1.03,1.03,1.03ZM50.7,113.64c.59,0,1.07-.48,1.07-1.07s-.48-1.07-1.07-1.07-1.07.48-1.07,1.07.48,1.07,1.07,1.07ZM46.59,110.18c.59,0,1.07-.48,1.07-1.07s-.48-1.07-1.07-1.07-1.07.48-1.07,1.07.48,1.07,1.07,1.07ZM42.84,106.15c.49,0,.89-.4.89-.89s-.4-.89-.89-.89-.89.4-.89.89.4.89.89.89ZM39.48,102.04c.53,0,.97-.43.97-.97s-.43-.97-.97-.97-.97.43-.97.97.43.97.97.97ZM36.53,97.68c.61,0,1.1-.49,1.1-1.1s-.49-1.1-1.1-1.1-1.1.49-1.1,1.1.49,1.1,1.1,1.1ZM34.03,46.89c1.07,0,1.93-.86,1.93-1.93s-.86-1.93-1.93-1.93-1.93.86-1.93,1.93.86,1.93,1.93,1.93ZM36.53,42.32c1.17,0,2.11-.95,2.11-2.11s-.95-2.11-2.11-2.11-2.11.95-2.11,2.11.95,2.11,2.11,2.11ZM39.48,37.7c1.1,0,1.98-.89,1.98-1.98s-.89-1.98-1.98-1.98-1.98.89-1.98,1.98.89,1.98,1.98,1.98ZM42.84,33.39c1.03,0,1.87-.84,1.87-1.87s-.84-1.87-1.87-1.87-1.87.84-1.87,1.87.84,1.87,1.87,1.87ZM46.59,29.81c1.17,0,2.13-.95,2.13-2.13s-.95-2.13-2.13-2.13-2.13.95-2.13,2.13.95,2.13,2.13,2.13ZM50.7,26.29c1.15,0,2.07-.93,2.07-2.07s-.93-2.07-2.07-2.07-2.07.93-2.07,2.07.93,2.07,2.07,2.07ZM55.12,23.02c1.02,0,1.85-.83,1.85-1.85s-.83-1.85-1.85-1.85-1.85.83-1.85,1.85.83,1.85,1.85,1.85ZM59.81,20.64c1.15,0,2.09-.93,2.09-2.09s-.93-2.09-2.09-2.09-2.09.93-2.09,2.09.93,2.09,2.09,2.09ZM64.74,18.42c1.11,0,2.01-.9,2.01-2.01s-.9-2.01-2.01-2.01-2.01.9-2.01,2.01.9,2.01,2.01,2.01ZM69.85,16.72c1.09,0,1.97-.88,1.97-1.97s-.88-1.97-1.97-1.97-1.97.88-1.97,1.97.88,1.97,1.97,1.97ZM75.1,15.06c.81,0,1.47-.66,1.47-1.47s-.66-1.47-1.47-1.47-1.47.66-1.47,1.47.66,1.47,1.47,1.47ZM80.43,14.51c.86,0,1.57-.7,1.57-1.57s-.7-1.57-1.57-1.57-1.57.7-1.57,1.57.7,1.57,1.57,1.57ZM85.8,14.35c.85,0,1.54-.69,1.54-1.54s-.69-1.54-1.54-1.54-1.54.69-1.54,1.54.69,1.54,1.54,1.54ZM91.16,14.65c.8,0,1.45-.65,1.45-1.45s-.65-1.45-1.45-1.45-1.45.65-1.45,1.45.65,1.45,1.45,1.45ZM96.45,15.7c.88,0,1.59-.71,1.59-1.59s-.71-1.59-1.59-1.59-1.59.71-1.59,1.59.71,1.59,1.59,1.59ZM101.64,17.06c.85,0,1.54-.69,1.54-1.54s-.69-1.54-1.54-1.54-1.54.69-1.54,1.54.69,1.54,1.54,1.54ZM106.66,18.86c.79,0,1.44-.64,1.44-1.44s-.64-1.43-1.44-1.43-1.43.64-1.43,1.43.64,1.44,1.43,1.44ZM111.48,21.18c.76,0,1.38-.62,1.38-1.38s-.62-1.38-1.38-1.38-1.38.62-1.38,1.38.62,1.38,1.38,1.38ZM116.04,24.02c.76,0,1.38-.62,1.38-1.38s-.62-1.38-1.38-1.38-1.38.62-1.38,1.38.62,1.38,1.38,1.38ZM120.31,27.07c.65,0,1.17-.53,1.17-1.17s-.53-1.17-1.17-1.17-1.17.53-1.17,1.17.53,1.17,1.17,1.17ZM124.24,30.72c.64,0,1.16-.52,1.16-1.16s-.52-1.16-1.16-1.16-1.16.52-1.16,1.16.52,1.16,1.16,1.16ZM127.8,34.91c.73,0,1.33-.6,1.33-1.33s-.6-1.33-1.33-1.33-1.33.6-1.33,1.33.6,1.33,1.33,1.33ZM130.96,39.2c.71,0,1.28-.57,1.28-1.28s-.57-1.28-1.28-1.28-1.28.57-1.28,1.28.57,1.28,1.28,1.28ZM133.69,43.73c.65,0,1.17-.53,1.17-1.17s-.53-1.17-1.17-1.17-1.17.53-1.17,1.17.53,1.17,1.17,1.17ZM135.95,48.71c.71,0,1.28-.57,1.28-1.28s-.57-1.28-1.28-1.28-1.28.57-1.28,1.28.57,1.28,1.28,1.28ZM135.86,100.96c1.02,0,1.85-.83,1.85-1.85s-.83-1.85-1.85-1.85-1.85.83-1.85,1.85.83,1.85,1.85,1.85ZM132.9,105.05c.81,0,1.46-.65,1.46-1.46s-.65-1.46-1.46-1.46-1.46.65-1.46,1.46.65,1.46,1.46,1.46ZM129.55,109.46c.92,0,1.67-.75,1.67-1.67s-.75-1.67-1.67-1.67-1.67.75-1.67,1.67.75,1.67,1.67,1.67ZM125.83,113.42c.97,0,1.75-.78,1.75-1.75s-.78-1.75-1.75-1.75-1.75.78-1.75,1.75.78,1.75,1.75,1.75ZM121.79,116.88c.92,0,1.67-.75,1.67-1.67s-.75-1.67-1.67-1.67-1.67.75-1.67,1.67.75,1.67,1.67,1.67ZM117.44,119.75c.76,0,1.38-.62,1.38-1.38s-.62-1.38-1.38-1.38-1.38.62-1.38,1.38.62,1.38,1.38,1.38ZM112.83,122.05c.51,0,.93-.41.93-.93s-.41-.93-.93-.93-.93.41-.93.93.41.93.93.93ZM107.99,124.81c.75,0,1.36-.61,1.36-1.36s-.61-1.36-1.36-1.36-1.36.61-1.36,1.36.61,1.36,1.36,1.36ZM102.96,126.03c.38,0,.69-.31.69-.69s-.31-.69-.69-.69-.69.31-.69.69.31.69.69.69ZM97.78,127.89c.62,0,1.12-.5,1.12-1.12s-.5-1.12-1.12-1.12-1.12.5-1.12,1.12.5,1.12,1.12,1.12ZM92.49,128.98c.69,0,1.25-.56,1.25-1.25s-.56-1.25-1.25-1.25-1.25.56-1.25,1.25.56,1.25,1.25,1.25ZM87.14,129.49c.71,0,1.28-.57,1.28-1.28s-.57-1.28-1.28-1.28-1.28.57-1.28,1.28.57,1.28,1.28,1.28ZM81.77,129.45c.68,0,1.24-.55,1.24-1.24s-.55-1.24-1.24-1.24-1.24.55-1.24,1.24.55,1.24,1.24,1.24ZM76.42,128.74c.56,0,1.02-.46,1.02-1.02s-.46-1.02-1.02-1.02-1.02.46-1.02,1.02.46,1.02,1.02,1.02ZM71.13,127.6c.46,0,.83-.37.83-.83s-.37-.83-.83-.83-.83.37-.83.83.37.83.83.83ZM65.95,125.96c.35,0,.63-.28.63-.63s-.28-.63-.63-.63-.63.28-.63.63.28.63.63.63ZM60.92,124.47c.56,0,1.02-.46,1.02-1.02s-.46-1.02-1.02-1.02-1.02.46-1.02,1.02.46,1.02,1.02,1.02ZM56.08,121.84c.4,0,.72-.32.72-.72s-.32-.72-.72-.72-.72.32-.72.72.32.72.72.72ZM51.47,119.33c.53,0,.97-.43.97-.97s-.43-.97-.97-.97-.97.43-.97.97.43.97.97.97ZM47.12,116.28c.59,0,1.07-.48,1.07-1.07s-.48-1.07-1.07-1.07-1.07.48-1.07,1.07.48,1.07,1.07,1.07ZM43.08,112.74c.59,0,1.07-.48,1.07-1.07s-.48-1.07-1.07-1.07-1.07.48-1.07,1.07.48,1.07,1.07,1.07ZM39.37,108.83c.58,0,1.04-.47,1.04-1.04s-.47-1.04-1.04-1.04-1.04.47-1.04,1.04.47,1.04,1.04,1.04ZM36.02,104.57c.54,0,.98-.44.98-.98s-.44-.98-.98-.98-.98.44-.98.98.44.98.98.98ZM33.06,99.83c.4,0,.73-.33.73-.73s-.33-.73-.73-.73-.73.33-.73.73.33.73.73.73ZM30.51,95.42c.58,0,1.04-.47,1.04-1.04s-.47-1.04-1.04-1.04-1.04.47-1.04,1.04.47,1.04,1.04,1.04ZM33.06,38.58c.5,0,.9-.4.9-.9s-.4-.9-.9-.9-.9.4-.9.9.4.9.9.9ZM36.02,34.45c.69,0,1.25-.56,1.25-1.25s-.56-1.25-1.25-1.25-1.25.56-1.25,1.25.56,1.25,1.25,1.25ZM39.37,30.42c.79,0,1.42-.64,1.42-1.42s-.64-1.42-1.42-1.42-1.42.64-1.42,1.42.64,1.42,1.42,1.42ZM43.08,26.54c.79,0,1.42-.64,1.42-1.42s-.64-1.42-1.42-1.42-1.42.64-1.42,1.42.64,1.42,1.42,1.42ZM47.12,22.79c.67,0,1.21-.54,1.21-1.21s-.54-1.21-1.21-1.21-1.21.54-1.21,1.21.54,1.21,1.21,1.21ZM51.47,20.28c1.02,0,1.85-.83,1.85-1.85s-.83-1.85-1.85-1.85-1.85.83-1.85,1.85.83,1.85,1.85,1.85ZM56.08,17.09c.79,0,1.42-.64,1.42-1.42s-.64-1.42-1.42-1.42-1.42.64-1.42,1.42.64,1.42,1.42,1.42ZM60.92,13.98c.35,0,.64-.29.64-.64s-.29-.64-.64-.64-.64.29-.64.64.29.64.64.64ZM65.95,12.48c.57,0,1.03-.46,1.03-1.03s-.46-1.03-1.03-1.03-1.03.46-1.03,1.03.46,1.03,1.03,1.03ZM71.13,11.4c.76,0,1.38-.62,1.38-1.38s-.62-1.38-1.38-1.38-1.38.62-1.38,1.38.62,1.38,1.38,1.38ZM76.42,9.44c.21,0,.38-.17.38-.38s-.17-.38-.38-.38-.38.17-.38.38.17.38.38.38ZM81.77,9.13c.3,0,.55-.25.55-.55s-.25-.55-.55-.55-.55.25-.55.55.25.55.55.55ZM87.14,9.13c.3,0,.55-.25.55-.55s-.25-.55-.55-.55-.55.25-.55.55.25.55.55.55ZM92.49,9.52c.25,0,.46-.2.46-.46s-.2-.46-.46-.46-.46.2-.46.46.2.46.46.46ZM97.78,11.32c.72,0,1.3-.58,1.3-1.3s-.58-1.3-1.3-1.3-1.3.58-1.3,1.3.58,1.3,1.3,1.3ZM102.96,12.27c.45,0,.82-.37.82-.82s-.37-.82-.82-.82-.82.37-.82.82.37.82.82.82ZM107.99,13.81c.26,0,.47-.21.47-.47s-.21-.47-.47-.47-.47.21-.47.47.21.47.47.47ZM112.83,16.66c.55,0,.99-.44.99-.99s-.44-.99-.99-.99-.99.44-.99.99.44.99.99.99ZM117.44,19.53c.61,0,1.11-.5,1.11-1.11s-.5-1.11-1.11-1.11-1.11.5-1.11,1.11.5,1.11,1.11,1.11ZM121.79,22.4c.45,0,.82-.37.82-.82s-.37-.82-.82-.82-.82.37-.82.82.37.82.82.82ZM125.83,25.96c.47,0,.85-.38.85-.85s-.38-.85-.85-.85-.85.38-.85.85.38.85.85.85ZM129.55,29.77c.43,0,.77-.34.77-.77s-.34-.77-.77-.77-.77.34-.77.77.34.77.77.77ZM132.9,33.86c.37,0,.67-.3.67-.67s-.3-.67-.67-.67-.67.3-.67.67.3.67.67.67ZM135.86,38.6c.5,0,.91-.41.91-.91s-.41-.91-.91-.91-.91.41-.91.91.41.91.91.91ZM138.4,43.12c.39,0,.7-.32.7-.7s-.32-.7-.7-.7-.7.32-.7.7.32.7.7.7Z"/>
  <g>
    <path class="cls-1" d="M23.51,68.77c0-1.08-3.01-.68-2.05-5.5l2.85-14.46h4.26l5.62,23.69c.24,1.77,1.57,3.94,2.09,4.3v.12h-7.39v-.12c.44-.32.56-2.01.24-3.57l-.16-.72-4.54-20h-.08l-.16,10.68c-.08,5.22,2.97,4.62,2.97,5.78,0,1.08-3.09-.12-3.13,2.81v.72c0,1.77.48,3.94,1,4.3v.12h-7.39v-.12c.52-.36,1.65-2.53,1.93-4.3l.12-.6c.64-3.37,3.81-1.97,3.81-3.13Z"/>
    <path class="cls-1" d="M52.5,75.83c0-1.53-1.77.72-5.38,2.57-1.57.8-3.37,1.93-4.66,2.05-7.07,1.04-3.98-6.87.52-9.03-3.21-.68-4.9-2.89-4.9-7.35,0-5.42,2.57-7.55,7.35-7.55,2.01,0,3.61.4,4.82,1.24v-.28c.08-2.57,1.12-4.06,2.41-4.06,1.2,0,2.61.8,2.61,2.97,0,2.05-1.2,2.41-2.65,3.45h-.12c1.45-2.21.64-3.65-.36-3.65-.64,0-1.12.72-1.49,1.93,1.33,1.2,2.05,3.13,2.05,5.94,0,5.46-2.61,7.59-7.27,7.59h-.08c-2.65.64-8.19,5.54-3.61,5.1,1.37-.12,4.3-2.33,5.98-3.73,3.85-3.21,5.54-1.24,5.3,2.53-.32,6.38-5.22,9.2-8.27,9.2l-3.41-3.05c2.69,0,11.16-4.02,11.16-5.86ZM47.88,64.07c0-5.54-1.08-6.79-2.45-6.79-1.45,0-2.53,1.24-2.53,6.79,0,5.22,1.04,6.75,2.41,6.83h.12c1.37,0,2.45-1.45,2.45-6.83Z"/>
    <path class="cls-1" d="M57.84,72.5v-15.66h5.9v.12c-.52.36-1.08,2.53-1.08,4.3v6.67h.12l.2-4.82c.16-4.3,1.93-6.75,4.06-6.75,2.01,0,3.25,1.32,3.25,4.58,0,3.77-3.49,5.82-5.86,7.55h-.2c2.37-3.65,2.57-7.55,1.16-7.55-1.53,0-2.61,5.54-2.69,12.45.16,1.57.6,3.09,1.04,3.41v.12h-6.99v-.12c.52-.36,1.08-2.53,1.08-4.3Z"/>
    <path class="cls-1" d="M72.09,66.84c0-7.39,2.57-10.32,7.35-10.32s7.27,2.93,7.27,10.32-2.61,10.4-7.27,10.4-7.35-2.93-7.35-10.4ZM81.89,66.84c0-7.55-1.08-9.28-2.45-9.28-1.45,0-2.53,1.73-2.53,9.28s1.08,9.36,2.53,9.36c1.37,0,2.45-1.97,2.45-9.36Z"/>
    <path class="cls-1" d="M88.51,76.8c.52-.36,1.08-2.53,1.08-4.3v-19.27c0-1.77-.56-3.94-1.08-4.3v-.12h13.53v9.24h-.2c0-3.61-3.89-5.22-6.91-5.22h-.52v6.38h1.16c1.77,0,3.13-.56,3.49-1.08h.12v3.37h-.12c-.36-.52-1.73-1.08-3.49-1.08h-1.16v12.09c0,1.77.56,3.94,1.08,4.3v.12h-6.99v-.12Z"/>
    <path class="cls-1" d="M102.16,66.84c0-7.39,2.57-10.32,7.35-10.32s7.27,2.93,7.27,10.32-2.61,10.4-7.27,10.4-7.35-2.93-7.35-10.4ZM111.96,66.84c0-7.55-1.08-9.28-2.45-9.28-1.45,0-2.53,1.73-2.53,9.28s1.08,9.36,2.53,9.36c1.37,0,2.45-1.97,2.45-9.36Z"/>
    <path class="cls-1" d="M119.06,66.84c0-7.39,2.57-10.32,7.35-10.32s7.27,2.93,7.27,10.32-2.61,10.4-7.27,10.4-7.35-2.93-7.35-10.4ZM128.86,66.84c0-7.55-1.08-9.28-2.45-9.28-1.45,0-2.53,1.73-2.53,9.28s1.08,9.36,2.53,9.36c1.37,0,2.45-1.97,2.45-9.36Z"/>
    <path class="cls-1" d="M135.8,65.63c0-3.01.72-9.28,4.34-9.28,2.13,0,3.89,2.45,4.06,6.75l.2,4.82h.12v-8.95c0-3.25-.56-9.68-1.08-10.04v-.12h5.9v23.69c0,1.77.56,3.94,1.08,4.3v.12h-5.9v-2.09c-.64,1.16-1.61,2.09-3.17,2.09-4.82,0-5.54-3.29-5.54-11.28ZM142.63,75.63c1.33,0,1.73-4.14,1.77-5.78-.36-5.18-1.28-8.91-2.17-8.91s-1.61,3.01-1.61,6.02c0,6.1.8,8.67,2.01,8.67Z"/>
  </g>
  <path class="cls-1" d="M82.91,91.46l-.02.02c-.16.05-.32.09-.49.12-.17.03-.32.08-.44.14h-1.03v-2.98c-.22.46-.54.89-.94,1.28-.4.39-.86.73-1.39,1.01-.53.28-1.1.5-1.73.66-.62.16-1.26.24-1.92.24s-1.29-.11-1.85-.32c-.56-.22-1.04-.52-1.45-.91-.41-.39-.73-.86-.96-1.39-.23-.54-.35-1.12-.35-1.76v-7.01c0-.24-.15-.36-.46-.36v-.48h2.5v7.83c0,.43.09.83.26,1.19.18.36.42.67.73.93.31.26.68.47,1.12.62.43.15.9.23,1.42.23.58,0,1.13-.05,1.67-.14.54-.1,1.03-.23,1.48-.41.45-.18.84-.39,1.16-.63.33-.25.57-.52.73-.8v-8c0-.24-.15-.36-.46-.36v-.48h1.49v.02h1.01v10.04c0,.8.23,1.14.7,1.01v.48c-.11.03-.22.06-.34.1-.11.03-.23.06-.36.1v.02h-.07Z"/>
  <path class="cls-1" d="M85.54,80.42l-.05-.26c.08-.03.16-.06.24-.07.08-.02.16-.04.24-.07v-.02h.07c.34-.1.66-.18.98-.26h1.01v2.64c.32-.42.69-.8,1.12-1.15.42-.35.87-.66,1.34-.91.47-.26.96-.46,1.45-.6.5-.14.97-.22,1.42-.22,1.26,0,2.24.28,2.93.85.69.57,1.13,1.32,1.32,2.24v-.22c.32-.42.7-.8,1.13-1.15.43-.35.89-.66,1.37-.91.48-.26.97-.46,1.48-.6.5-.14,1-.22,1.48-.22.77,0,1.42.11,1.97.32.54.22,1,.52,1.36.9s.62.84.79,1.37c.17.53.25,1.1.25,1.73v7.11c0,.24.15.36.46.36v.48h-2.95v-.48c.3,0,.46-.12.46-.36v-7.11c0-.82-.25-1.49-.76-2.02s-1.31-.79-2.41-.79c-.5,0-.98.04-1.45.12-.47.08-.91.19-1.32.34s-.77.31-1.09.5c-.32.19-.57.4-.74.62.08.43.12.84.12,1.22v7.08c0,.24.15.36.46.36v.48h-2.95v-.48c.3,0,.46-.12.46-.36v-7.08c0-.82-.25-1.49-.76-2.02s-1.31-.79-2.41-.79c-.48,0-.95.04-1.4.12-.46.08-.88.19-1.28.34s-.76.31-1.07.5-.56.4-.73.62v8.31c0,.24.15.36.46.36v.48h-2.95v-.48c.3,0,.46-.12.46-.36v-9.03c0-.34-.04-.64-.12-.9-.08-.26-.19-.44-.34-.54Z"/>
  <path class="cls-1" d="M109.68,80.42l-.05-.26c.08-.03.16-.06.24-.07.08-.02.16-.04.24-.07v-.02h.07c.34-.1.66-.18.98-.26h1.01v2.64c.32-.42.69-.8,1.12-1.15.42-.35.87-.66,1.34-.91.47-.26.96-.46,1.45-.6.5-.14.97-.22,1.42-.22,1.26,0,2.24.28,2.93.85.69.57,1.13,1.32,1.32,2.24v-.22c.32-.42.7-.8,1.13-1.15.43-.35.89-.66,1.37-.91.48-.26.97-.46,1.48-.6.5-.14,1-.22,1.48-.22.77,0,1.42.11,1.97.32.54.22,1,.52,1.36.9s.62.84.79,1.37c.17.53.25,1.1.25,1.73v7.11c0,.24.15.36.46.36v.48h-2.95v-.48c.3,0,.46-.12.46-.36v-7.11c0-.82-.25-1.49-.76-2.02s-1.31-.79-2.41-.79c-.5,0-.98.04-1.45.12-.47.08-.91.19-1.32.34s-.77.31-1.09.5c-.32.19-.57.4-.74.62.08.43.12.84.12,1.22v7.08c0,.24.15.36.46.36v.48h-2.95v-.48c.3,0,.46-.12.46-.36v-7.08c0-.82-.25-1.49-.76-2.02s-1.31-.79-2.41-.79c-.48,0-.95.04-1.4.12-.46.08-.88.19-1.28.34s-.76.31-1.07.5-.56.4-.73.62v8.31c0,.24.15.36.46.36v.48h-2.95v-.48c.3,0,.46-.12.46-.36v-9.03c0-.34-.04-.64-.12-.9-.08-.26-.19-.44-.34-.54Z"/>
  <path class="cls-1" d="M134.06,80.42l-.05-.26c.08-.03.16-.06.24-.07.08-.02.16-.04.24-.07v-.02h.07c.34-.1.66-.18.98-.26h1.01v11.16c0,.24.15.36.46.36v.48h-2.95v-.48c.3,0,.46-.12.46-.36v-9.03c0-.34-.04-.64-.12-.9-.08-.26-.19-.44-.34-.54Z"/>
  <path class="cls-1" d="M147.69,79.73v1.08h-4.75l-.05,7.54c0,.93.23,1.6.68,2.03.46.42,1.04.64,1.76.64s1.31-.16,1.86-.47c.55-.31.92-.72,1.09-1.21l.24.1c-.13.37-.32.71-.58,1.02-.26.31-.56.58-.9.8-.34.22-.72.4-1.12.53s-.81.19-1.22.19c-1.1,0-2.02-.33-2.74-.98-.72-.66-1.08-1.69-1.08-3.1v-7.11h-1.56v-.24l3.46-2.67h.14v1.85h4.75Z"/>
  <path class="cls-1" d="M66.15,86.52c-.75-.67-1.8-1.19-3.18-1.56-1.29-.35-2.3-.81-3.01-1.37-.71-.55-1.06-1.12-1.06-1.67,0-.67.27-1.23.81-1.66.55-.43,1.26-.65,2.12-.65.76,0,1.48.14,2.16.41.55.23,1.03.55,1.45.98.41.44.71.91.88,1.42h.34v-1.83h-.31l-.1.03s-.11-.09-.43-.22c-.61-.24-1.22-.48-1.85-.65-.69-.19-1.41-.26-2.13-.26-.65,0-1.23.08-1.76.24-.54.16-1,.38-1.38.65-.38.27-.68.6-.9.98-.22.38-.33.8-.33,1.25,0,.77.4,1.51,1.2,2.22.8.72,1.95,1.27,3.44,1.67,1.15.32,2.04.72,2.67,1.2.62.47.94.97.94,1.48,0,.77-.3,1.41-.89,1.91-.59.51-1.36.75-2.28.75-.85,0-1.66-.2-2.42-.6-.45-.22-.88-.56-1.3-1.03-.42-.46-.71-.94-.88-1.42l-.1-.22h-.34l-1.11.03-38.71.49v.74c.25,0,36.31-.04,40.27.9.51.12.99.28,1.46.49.23.1.42.2.56.27.38.15.79.25,1.22.34.44.08.88.12,1.35.12.69,0,1.33-.08,1.91-.25.58-.17,1.08-.4,1.5-.7.42-.29.75-.65.98-1.06.25-.42.36-.86.36-1.35,0-.72-.37-1.42-1.12-2.09Z"/>
</svg>