<?xml version="1.0" encoding="UTF-8"?>
<svg id="_Слой_1" data-name="Слой 1" xmlns="http://www.w3.org/2000/svg" viewBox="0 0 595.28 119.13">
  <defs>
    <style>
      .cls-1 {
        fill: #fff;
      }

      .cls-2 {
        fill: #c0cf1a;
      }
    </style>
  </defs>
  <g>
    <path class="cls-1" d="M235.29,111.31h-11.28v-59.81h11.28v59.81Z"/>
    <path class="cls-1" d="M302.8,103.53c0,5.64-2.96,8.46-8.88,8.46-4.33,0-7.55-1.68-9.66-5.04l-25.21-39.82c-.63-.97-1.09-1.45-1.37-1.45-.8,0-1.19.57-1.19,1.71v43.92h-10.94v-52.38c0-2.56.81-4.56,2.43-5.98,1.63-1.42,3.86-2.14,6.71-2.14,4.33,0,7.49,1.57,9.49,4.7l25.38,40.08c.63.97,1.08,1.45,1.37,1.45.63,0,.94-.48.94-1.45v-44.09h10.93v52.04Z"/>
    <path class="cls-1" d="M360.65,60.46h-33.49c-.97,0-1.68.24-2.14.73-.46.48-.68,1.27-.68,2.35v12.99h26.49v8.97h-26.49v25.81h-11.28v-51.95c0-2.39.74-4.3,2.22-5.73,1.48-1.42,3.62-2.14,6.41-2.14h38.96v8.97Z"/>
    <path class="cls-1" d="M425.84,81.4c0,11.74-2.28,19.83-6.83,24.27-2.85,2.79-6.78,4.64-11.79,5.56-2.85.51-6.86.77-12.05.77s-9.29-.25-12.14-.77c-4.9-.91-8.83-2.79-11.79-5.64-2.96-2.85-4.96-6.86-5.98-12.05-.57-2.9-.85-6.95-.85-12.13s.34-9.71,1.02-12.9c1.03-4.84,2.99-8.64,5.9-11.41,2.91-2.76,6.81-4.6,11.71-5.51,2.79-.51,6.84-.77,12.14-.77s9.29.25,12.14.77c4.9.91,8.8,2.76,11.71,5.55,4.56,4.39,6.83,12.47,6.83,24.27ZM414.23,81.4c0-8.15-1.23-13.73-3.68-16.75-2.62-3.25-7.78-4.87-15.47-4.87s-12.72,1.58-15.25,4.74c-2.53,3.16-3.8,8.79-3.8,16.88s1.22,13.53,3.67,16.66c1.59,2.05,3.82,3.45,6.66,4.19,2.05.51,4.96.77,8.72.77s6.66-.26,8.72-.77c2.85-.74,5.1-2.14,6.75-4.19,2.45-3.07,3.68-8.63,3.68-16.66Z"/>
    <path class="cls-1" d="M489.42,111.31h-14.19l-19.65-19.4c-1.88-1.88-2.82-3.56-2.82-5.04v-1.37c0-2.73,1.68-4.1,5.04-4.1h11.28c2.96,0,5.01-.88,6.15-2.65.92-1.42,1.37-4.16,1.37-8.2s-.71-6.86-2.14-8.29c-1.19-1.2-3.31-1.79-6.32-1.79h-18.29c-1.25,0-2.26.32-3.03.98-.77.66-1.15,1.75-1.15,3.29v46.57h-11.28v-49.65c0-3.59.83-6.18,2.48-7.77,1.65-1.59,4.04-2.39,7.18-2.39h28.37c6.1,0,10.37,1.82,12.81,5.47,2,2.97,2.99,7.35,2.99,13.16s-.85,10.31-2.56,13.5c-2.22,4.1-5.98,6.15-11.28,6.15h-7.69v.42l22.73,21.11Z"/>
    <path class="cls-1" d="M571.62,111.31h-11.28l.34-46.57c0-1.2-.34-1.8-1.02-1.8-.46,0-.94.66-1.46,1.97l-15.29,39.91c-.97,2.56-1.94,4.33-2.91,5.3-1.31,1.25-3.19,1.88-5.64,1.88s-4.53-.71-5.9-2.14c-.85-.91-1.74-2.59-2.65-5.04l-15.29-39.91c-.51-1.31-1-1.97-1.45-1.97-.63,0-.94.6-.94,1.8l.26,46.57h-11.28v-52.64c0-5.24,3.22-7.86,9.66-7.86,3.13,0,5.56.77,7.26,2.3,1.19,1.03,2.28,2.82,3.25,5.38l15.47,39.91c.57,1.48,1.11,2.22,1.62,2.22s1.05-.74,1.63-2.22l15.46-39.91c1.2-3.07,2.74-5.21,4.62-6.41,1.42-.85,3.39-1.28,5.9-1.28,6.44,0,9.66,2.62,9.66,7.86v52.64Z"/>
  </g>
  <g>
    <path class="cls-2" d="M134.81,71.69c0,8.05-1.73,13.49-5.19,16.33-2.38,1.93-5.41,2.89-9.1,2.89h-27.89v21.09h-11.22v-50.59c0-3.06.72-5.32,2.17-6.76,1.44-1.44,3.64-2.17,6.59-2.17h28.31c5.44,0,9.38,1.19,11.82,3.57,3,2.89,4.51,8.11,4.51,15.64ZM123.25,71.6c0-3.97-.68-6.66-2.04-8.08-1.36-1.42-3.71-2.12-7.06-2.12h-18.11c-1.25,0-2.13.25-2.64.76-.51.51-.77,1.45-.77,2.81v17h21.34c3.57,0,6.01-.74,7.31-2.21,1.3-1.47,1.96-4.19,1.96-8.16Z"/>
    <g>
      <path class="cls-2" d="M52.03,53.14c-1.47-1.01-3.51-1.52-6.12-1.52s-4.79.49-6.2,1.48c-1.42.98-2.68,2.24-3.77,4.84l-22.91,54.04h12.06l6.16-14.12h29.24l6.25,14.12h12.06l-22.91-54.04c-1.1-2.55-2.38-3.79-3.86-4.8ZM34.2,90.26l9.98-25.09c.69-1.68,1.27-2.69,1.74-2.69s1.04,1.11,1.74,2.78l9.89,25h-23.34Z"/>
      <path class="cls-2" d="M175.3,86.93c-2.6-2.31-3.9-3.9-3.9-5.29,0-1.1,1.07-2.57,3.21-4.59l26.21-24.81h-14.14l-22.99,22.78c-2.2,2.2-3.3,4.5-3.3,6.87,0,2.6,1.39,4.68,4.17,7.28l24.99,22.82h14.49l-28.72-25.06Z"/>
    </g>
    <path class="cls-2" d="M153.35,44.19c-1.71-4.2-3.67-8.38-6.37-12.04-.51-.69-.98-1.32-1.45-1.92-.9-1.22-1.79-2.1-2.37-2.77-.6-.66-.93-1.03-.93-1.03,0,0,.39.33,1.06.91.66.6,1.68,1.36,2.74,2.47.54.54,1.14,1.12,1.75,1.75.58.67,1.19,1.37,1.82,2.09.62.74,1.19,1.56,1.81,2.37.6.82,1.12,1.72,1.7,2.59.52.9,1.01,1.82,1.48,2.74.41.94.88,1.85,1.2,2.79.37.92.67,1.84.91,2.72.28.87.43,1.73.62,2.52.12.62.2,1.2.27,1.75,2.19-6.5,2.8-16.23-1.74-23.66-7.48-12.24-27.41-13.59-27.41-13.59,0,0-8.08,18.49-.6,30.73,3.99,6.53,12.24,9.96,17.67,11.74v55.66h10.86v-54.87c0-4.48-1.39-8.91-3.03-12.93Z"/>
  </g>
</svg>