<?xml version="1.0" encoding="UTF-8"?>
<svg id="_Слой_1" data-name="Слой 1" xmlns="http://www.w3.org/2000/svg" viewBox="0 0 264.21 53.94">
  <defs>
    <style>
      .cls-1 {
        fill: #777373;
      }

      .cls-2 {
        fill: #c0cf1a;
      }
    </style>
  </defs>
  <g>
    <path class="cls-1" d="M105.65,49.23h-5.23v-27.74h5.23v27.74Z"/>
    <path class="cls-1" d="M136.96,45.63c0,2.61-1.37,3.92-4.12,3.92-2.01,0-3.5-.78-4.48-2.34l-11.69-18.47c-.29-.45-.5-.67-.64-.67-.37,0-.55.26-.55.79v20.37h-5.07v-24.3c0-1.19.38-2.11,1.13-2.77.76-.66,1.79-.99,3.11-.99,2.01,0,3.47.73,4.4,2.18l11.77,18.59c.29.45.5.67.63.67.29,0,.44-.22.44-.67v-20.45h5.07v24.14Z"/>
    <path class="cls-1" d="M163.8,25.65h-15.54c-.45,0-.78.11-.99.34-.21.22-.32.59-.32,1.09v6.03h12.29v4.16h-12.29v11.97h-5.23v-24.1c0-1.11.34-2,1.03-2.66.69-.66,1.68-.99,2.97-.99h18.07v4.16Z"/>
    <path class="cls-1" d="M194.04,35.36c0,5.44-1.06,9.2-3.17,11.26-1.32,1.29-3.14,2.15-5.47,2.58-1.32.24-3.18.36-5.59.36s-4.31-.12-5.63-.36c-2.27-.42-4.09-1.29-5.47-2.62-1.37-1.32-2.3-3.18-2.77-5.59-.27-1.35-.4-3.22-.4-5.63s.16-4.5.47-5.99c.48-2.25,1.39-4.01,2.73-5.29,1.35-1.28,3.16-2.13,5.43-2.56,1.29-.24,3.17-.36,5.63-.36s4.31.12,5.63.36c2.27.42,4.08,1.28,5.43,2.58,2.11,2.04,3.17,5.79,3.17,11.26ZM188.65,35.36c0-3.78-.57-6.37-1.7-7.77-1.22-1.51-3.61-2.26-7.17-2.26s-5.9.73-7.08,2.2c-1.17,1.47-1.76,4.08-1.76,7.83s.57,6.28,1.7,7.73c.74.95,1.77,1.6,3.09,1.94.95.24,2.3.36,4.04.36s3.09-.12,4.04-.36c1.32-.34,2.36-.99,3.13-1.94,1.14-1.43,1.7-4,1.7-7.73Z"/>
    <path class="cls-1" d="M223.53,49.23h-6.58l-9.12-9c-.87-.87-1.31-1.65-1.31-2.34v-.63c0-1.27.78-1.9,2.34-1.9h5.23c1.37,0,2.32-.41,2.85-1.23.42-.66.64-1.93.64-3.81s-.33-3.18-.99-3.85c-.55-.56-1.53-.83-2.93-.83h-8.48c-.58,0-1.05.15-1.41.45-.36.3-.54.81-.54,1.53v21.6h-5.23v-23.03c0-1.66.38-2.87,1.15-3.61.77-.74,1.88-1.11,3.33-1.11h13.16c2.83,0,4.81.85,5.94,2.54.93,1.38,1.39,3.41,1.39,6.11s-.4,4.78-1.19,6.26c-1.03,1.9-2.78,2.85-5.23,2.85h-3.57v.2l10.54,9.79Z"/>
    <path class="cls-1" d="M261.66,49.23h-5.23l.16-21.6c0-.56-.16-.83-.47-.83-.21,0-.44.3-.68.91l-7.09,18.51c-.45,1.19-.9,2.01-1.35,2.46-.61.58-1.48.87-2.62.87s-2.1-.33-2.73-.99c-.4-.42-.81-1.2-1.23-2.34l-7.09-18.51c-.24-.61-.46-.91-.67-.91-.29,0-.44.28-.44.83l.12,21.6h-5.23v-24.42c0-2.43,1.49-3.65,4.48-3.65,1.45,0,2.58.36,3.37,1.07.55.48,1.06,1.31,1.51,2.5l7.17,18.51c.26.69.52,1.03.75,1.03s.49-.34.75-1.03l7.17-18.51c.56-1.43,1.27-2.42,2.14-2.97.66-.4,1.57-.59,2.73-.59,2.99,0,4.48,1.22,4.48,3.65v24.42Z"/>
  </g>
  <g>
    <path class="cls-2" d="M59.04,30.86c0,3.73-.8,6.26-2.41,7.57-1.1.89-2.51,1.34-4.22,1.34h-12.94v9.78h-5.21v-23.47c0-1.42.34-2.47,1.01-3.14.67-.67,1.69-1.01,3.06-1.01h13.13c2.52,0,4.35.55,5.48,1.66,1.39,1.34,2.09,3.76,2.09,7.26ZM53.68,30.82c0-1.84-.32-3.09-.95-3.75-.63-.66-1.72-.99-3.27-.99h-8.4c-.58,0-.99.12-1.22.35-.24.24-.36.67-.36,1.3v7.89h9.9c1.66,0,2.79-.34,3.39-1.03.6-.68.91-1.95.91-3.79Z"/>
    <g>
      <path class="cls-2" d="M20.64,22.26c-.68-.47-1.63-.7-2.84-.7s-2.22.23-2.88.69c-.66.46-1.24,1.04-1.75,2.25L2.55,49.55h5.59l2.86-6.55h13.56l2.9,6.55h5.6l-10.63-25.07c-.51-1.18-1.11-1.76-1.79-2.23ZM12.37,39.47l4.63-11.64c.32-.78.59-1.25.81-1.25s.48.51.81,1.29l4.59,11.6h-10.83Z"/>
      <path class="cls-2" d="M77.82,37.93c-1.21-1.07-1.81-1.81-1.81-2.45,0-.51.5-1.19,1.49-2.13l12.16-11.51h-6.56l-10.67,10.56c-1.02,1.02-1.53,2.09-1.53,3.19,0,1.21.64,2.17,1.93,3.38l11.59,10.58h6.72l-13.32-11.63Z"/>
    </g>
    <path class="cls-2" d="M67.64,18.1c-.79-1.95-1.7-3.89-2.95-5.59-.24-.32-.46-.61-.67-.89-.42-.57-.83-.97-1.1-1.28-.28-.31-.43-.48-.43-.48,0,0,.18.15.49.42.3.28.78.63,1.27,1.15.25.25.53.52.81.81.27.31.55.63.84.97.29.34.55.72.84,1.1.28.38.52.8.79,1.2.24.42.47.84.69,1.27.19.44.41.86.56,1.29.17.43.31.85.42,1.26.13.4.2.8.29,1.17.06.29.09.56.13.81,1.02-3.02,1.3-7.53-.81-10.98-3.47-5.68-12.72-6.31-12.72-6.31,0,0-3.75,8.58-.28,14.26,1.85,3.03,5.68,4.62,8.2,5.45v25.82h5.04v-25.45c0-2.08-.65-4.13-1.4-6Z"/>
  </g>
</svg>