<?xml version="1.0" encoding="UTF-8"?>
<svg id="_Слой_1" data-name="Слой 1" xmlns="http://www.w3.org/2000/svg" viewBox="0 0 381.48 119.13">
  <defs>
    <style>
      .cls-1 {
        fill: #fff;
      }

      .cls-2 {
        fill: #c0cf1a;
      }
    </style>
  </defs>
  <g>
    <g>
      <path class="cls-1" d="M154.26,68.76h-7.36V29.73h7.36v39.03Z"/>
      <path class="cls-1" d="M198.3,63.68c0,3.68-1.93,5.52-5.8,5.52-2.83,0-4.93-1.09-6.3-3.29l-16.45-25.98c-.41-.63-.71-.95-.89-.95-.52,0-.78.37-.78,1.11v28.66h-7.14v-34.18c0-1.67.53-2.97,1.59-3.9,1.07-.93,2.52-1.39,4.38-1.39,2.82,0,4.88,1.02,6.19,3.06l16.56,26.15c.41.63.7.95.89.95.41,0,.62-.31.62-.95v-28.77h7.13v33.95Z"/>
      <path class="cls-1" d="M236.04,35.59h-21.85c-.64,0-1.1.16-1.4.47-.3.31-.44.83-.44,1.53v8.48h17.28v5.85h-17.28v16.84h-7.36v-33.9c0-1.56.48-2.81,1.45-3.74.96-.93,2.36-1.39,4.18-1.39h25.42v5.86Z"/>
      <path class="cls-1" d="M278.58,49.24c0,7.66-1.49,12.94-4.46,15.83-1.86,1.82-4.42,3.03-7.69,3.62-1.86.33-4.48.5-7.86.5s-6.06-.16-7.92-.5c-3.2-.6-5.76-1.82-7.69-3.68-1.93-1.86-3.23-4.48-3.9-7.86-.37-1.89-.56-4.53-.56-7.91s.22-6.33.67-8.42c.67-3.16,1.95-5.64,3.85-7.44,1.9-1.8,4.44-3,7.64-3.6,1.82-.34,4.46-.5,7.92-.5s6.06.16,7.92.5c3.2.6,5.74,1.8,7.64,3.62,2.97,2.86,4.46,8.14,4.46,15.83ZM271,49.24c0-5.31-.8-8.96-2.4-10.93-1.71-2.12-5.07-3.18-10.09-3.18s-8.3,1.03-9.95,3.09c-1.65,2.06-2.48,5.73-2.48,11.01s.8,8.83,2.39,10.87c1.04,1.34,2.49,2.25,4.35,2.73,1.34.33,3.23.5,5.69.5s4.35-.17,5.69-.5c1.86-.48,3.32-1.39,4.4-2.73,1.6-2.01,2.4-5.63,2.4-10.87Z"/>
      <path class="cls-1" d="M320.06,68.76h-9.25l-12.82-12.66c-1.23-1.23-1.84-2.32-1.84-3.29v-.89c0-1.78,1.1-2.68,3.29-2.68h7.36c1.93,0,3.27-.58,4.01-1.73.6-.93.89-2.71.89-5.35s-.47-4.48-1.39-5.41c-.78-.78-2.16-1.17-4.13-1.17h-11.93c-.82,0-1.48.21-1.98.64-.5.43-.75,1.14-.75,2.15v30.39h-7.36v-32.39c0-2.34.54-4.03,1.62-5.07,1.08-1.04,2.64-1.56,4.68-1.56h18.51c3.98,0,6.76,1.19,8.36,3.57,1.3,1.94,1.95,4.8,1.95,8.59s-.56,6.73-1.67,8.81c-1.45,2.68-3.9,4.02-7.36,4.02h-5.02v.28l14.83,13.77Z"/>
      <path class="cls-1" d="M373.69,68.76h-7.36l.22-30.39c0-.78-.22-1.17-.67-1.17-.3,0-.62.43-.95,1.28l-9.98,26.04c-.63,1.67-1.27,2.82-1.9,3.45-.86.82-2.08,1.22-3.68,1.22s-2.96-.46-3.85-1.39c-.56-.59-1.14-1.69-1.73-3.29l-9.98-26.04c-.33-.85-.65-1.28-.95-1.28-.41,0-.61.39-.61,1.17l.17,30.39h-7.36v-34.34c0-3.42,2.1-5.13,6.3-5.13,2.04,0,3.62.5,4.74,1.5.78.67,1.49,1.84,2.12,3.51l10.09,26.04c.37.97.73,1.45,1.06,1.45s.69-.48,1.06-1.45l10.09-26.04c.78-2.01,1.79-3.4,3.01-4.18.93-.56,2.21-.84,3.85-.84,4.2,0,6.3,1.71,6.3,5.13v34.34Z"/>
    </g>
    <g>
      <path class="cls-2" d="M87.76,42.99c0,5.35-1.15,8.96-3.44,10.84-1.58,1.28-3.59,1.92-6.04,1.92h-18.52v14h-7.45v-33.59c0-2.03.48-3.53,1.44-4.49.96-.96,2.42-1.44,4.38-1.44h18.8c3.61,0,6.23.79,7.85,2.37,2,1.92,2.99,5.38,2.99,10.39ZM80.08,42.94c0-2.63-.45-4.42-1.36-5.36-.9-.94-2.47-1.41-4.69-1.41h-12.03c-.83,0-1.41.17-1.75.51-.34.34-.51.96-.51,1.86v11.29h14.17c2.37,0,3.99-.49,4.86-1.47.86-.98,1.3-2.78,1.3-5.42Z"/>
      <g>
        <path class="cls-2" d="M32.79,30.68c-.98-.67-2.33-1.01-4.06-1.01s-3.18.33-4.12.98c-.94.65-1.78,1.49-2.51,3.22l-15.21,35.89h8.01l4.09-9.38h19.42l4.15,9.38h8.01l-15.21-35.89c-.73-1.69-1.58-2.51-2.56-3.19ZM20.95,55.33l6.63-16.66c.46-1.11.84-1.79,1.15-1.79s.69.74,1.15,1.85l6.57,16.6h-15.5Z"/>
        <path class="cls-2" d="M114.64,53.11c-1.73-1.53-2.59-2.59-2.59-3.51,0-.73.71-1.71,2.13-3.05l17.4-16.48h-9.39l-15.27,15.12c-1.46,1.46-2.19,2.99-2.19,4.56,0,1.73.92,3.11,2.77,4.84l16.59,15.15h9.62l-19.07-16.64Z"/>
      </g>
      <path class="cls-2" d="M100.07,24.73c-1.13-2.79-2.43-5.57-4.23-8-.34-.46-.65-.88-.96-1.28-.59-.81-1.19-1.39-1.57-1.84-.4-.44-.61-.69-.61-.69,0,0,.26.22.7.6.43.4,1.12.91,1.82,1.64.36.36.76.74,1.16,1.16.38.44.79.91,1.21,1.39.41.49.79,1.04,1.2,1.57.4.54.75,1.14,1.13,1.72.34.6.67,1.21.98,1.82.27.63.59,1.23.8,1.85.24.61.44,1.22.61,1.81.19.58.29,1.15.41,1.67.08.42.13.8.18,1.16,1.46-4.32,1.86-10.78-1.15-15.71-4.96-8.13-18.2-9.03-18.2-9.03,0,0-5.36,12.28-.4,20.41,2.65,4.34,8.13,6.61,11.73,7.79v36.96h7.21v-36.43c0-2.98-.93-5.92-2.01-8.59Z"/>
    </g>
  </g>
  <path class="cls-2" d="M81.3,96.45c1.83-1.63,1.95-3.71.36-6.06-3.18,4.14-7.28,4.67-12.31,1.58v8.97c5.03-3.08,9.13-2.55,12.31,1.58,1.59-2.35,1.47-4.44-.36-6.07h0ZM61.97,100.94c-5.03-3.08-9.13-2.55-12.32,1.58-1.59-2.35-1.47-4.45.36-6.07-1.83-1.63-1.95-3.71-.36-6.06,3.18,4.14,7.29,4.67,12.32,1.58v8.97ZM65.62,84.85c-2.07-4.35-8.53-7.94-12.95-3.41-1.98,1.95-2.88,6.71,1.04,9.51,4.2,2.68,7.07-2.16,5.1-4.72-3.13,2.92-5.02-4.37,1.37-2.83,3.07.88,3.99,4.32,3.72,9.17l1.74,2.05,1.74-2.05c-.28-4.86.65-8.29,3.72-9.17,6.38-1.53,4.5,5.75,1.37,2.83-1.97,2.56.9,7.4,5.1,4.72,3.93-2.8,3.02-7.56,1.05-9.51-4.43-4.53-10.94-.94-13.01,3.41h0ZM65.62,108.06c-2.07,4.35-8.53,7.94-12.95,3.41-1.98-1.95-2.88-6.71,1.04-9.5,4.2-2.68,7.07,2.16,5.1,4.72-3.13-2.92-5.02,4.37,1.37,2.83,3.07-.88,3.99-4.32,3.72-9.17l1.74-2.05,1.74,2.05c-.28,4.85.65,8.28,3.72,9.17,6.38,1.53,4.5-5.75,1.37-2.83-1.97-2.56.9-7.4,5.1-4.72,3.93,2.79,3.02,7.56,1.05,9.5-4.43,4.53-10.94.95-13.01-3.41h0Z"/>
  <path class="cls-2" d="M15.2,111.79c1.66.44,2.47,1.34,4.54,1.65,2.71.39,5.16-.56,7.33-3.14,2.18,2.58,4.63,3.53,7.34,3.14,2.07-.3,2.89-1.21,4.54-1.65,3.61-.97,5.8,2.61,8.31,1.59-1.63-.72-.41-6.73-6.18-4.97,5.22-10.08-9.83-10.14-7.29-3.92,1.64-1.19,4.26.38,2.36,2.93-1.59,1.88-4.89.41-5.33-2.64-.35-3.07.63-5.93,4.85-8.33-4.22-2.39-5.2-5.24-4.85-8.31.45-3.05,3.74-4.53,5.33-2.64,1.91,2.56-.72,4.12-2.36,2.93.34,1.54.36,1.56,0,.01-2.54,6.22,12.52,6.15,7.29-3.92,5.77,1.75,4.55-4.26,6.18-4.98-2.5-1.03-4.7,2.56-8.3,1.59-1.67-.45-2.47-1.35-4.55-1.65-2.7-.39-5.16.56-7.33,3.14-2.17-2.58-4.62-3.53-7.33-3.14-2.07.3-2.89,1.21-4.55,1.65-3.6.96-5.8-2.62-8.3-1.59,1.63.72.41,6.73,6.18,4.98-5.22,10.08,9.83,10.13,7.29,3.93,0,0,0-.01,0-.02-1.64,1.19-4.27-.37-2.36-2.93,1.59-1.88,4.88-.4,5.33,2.64.35,3.09-.63,5.93-4.85,8.32,4.22,2.39,5.2,5.25,4.85,8.33-.45,3.05-3.74,4.53-5.33,2.64-1.9-2.55.72-4.12,2.36-2.93,0,0,0,0,0-.01,2.53-6.21-12.51-6.14-7.3,3.93-5.76-1.74-4.54,4.27-6.18,4.98,2.5,1.03,4.69-2.56,8.3-1.59Z"/>
  <path class="cls-2" d="M92.75,111.79c1.66.44,2.47,1.34,4.54,1.65,2.71.39,5.16-.56,7.33-3.14,2.18,2.58,4.63,3.53,7.34,3.14,2.07-.3,2.89-1.21,4.54-1.65,3.61-.97,5.8,2.61,8.31,1.59-1.63-.72-.41-6.73-6.18-4.97,5.22-10.08-9.83-10.14-7.29-3.92,1.64-1.19,4.26.38,2.36,2.93-1.59,1.88-4.89.41-5.33-2.64-.35-3.07.63-5.93,4.85-8.33-4.22-2.39-5.2-5.24-4.85-8.31.45-3.05,3.74-4.53,5.33-2.64,1.91,2.56-.72,4.12-2.36,2.93.34,1.54.36,1.56,0,.01-2.54,6.22,12.52,6.15,7.29-3.92,5.77,1.75,4.55-4.26,6.18-4.98-2.5-1.03-4.7,2.56-8.3,1.59-1.67-.45-2.47-1.35-4.55-1.65-2.7-.39-5.16.56-7.33,3.14-2.17-2.58-4.62-3.53-7.33-3.14-2.07.3-2.89,1.21-4.55,1.65-3.6.96-5.8-2.62-8.3-1.59,1.63.72.41,6.73,6.18,4.98-5.22,10.08,9.83,10.13,7.29,3.93,0,0,0-.01,0-.02-1.64,1.19-4.27-.37-2.36-2.93,1.59-1.88,4.88-.4,5.33,2.64.35,3.09-.63,5.93-4.85,8.32,4.22,2.39,5.2,5.25,4.85,8.33-.45,3.05-3.74,4.53-5.33,2.64-1.9-2.55.72-4.12,2.36-2.93,0,0,0,0,0-.01,2.53-6.21-12.51-6.14-7.3,3.93-5.76-1.74-4.54,4.27-6.18,4.98,2.5,1.03,4.69-2.56,8.3-1.59Z"/>
  <path class="cls-2" d="M330.18,96.45c1.83-1.63,1.95-3.71.36-6.06-3.18,4.14-7.28,4.67-12.31,1.58v8.97c5.03-3.08,9.13-2.55,12.31,1.58,1.59-2.35,1.47-4.44-.36-6.07h0ZM310.85,100.94c-5.03-3.08-9.13-2.55-12.32,1.58-1.59-2.35-1.47-4.45.36-6.07-1.83-1.63-1.95-3.71-.36-6.06,3.18,4.14,7.29,4.67,12.32,1.58v8.97ZM314.49,84.85c-2.07-4.35-8.53-7.94-12.95-3.41-1.98,1.95-2.88,6.71,1.04,9.51,4.2,2.68,7.07-2.16,5.1-4.72-3.13,2.92-5.02-4.37,1.37-2.83,3.07.88,3.99,4.32,3.72,9.17l1.74,2.05,1.74-2.05c-.28-4.86.65-8.29,3.72-9.17,6.38-1.53,4.5,5.75,1.37,2.83-1.97,2.56.9,7.4,5.1,4.72,3.93-2.8,3.02-7.56,1.05-9.51-4.43-4.53-10.94-.94-13.01,3.41h0ZM314.49,108.06c-2.07,4.35-8.53,7.94-12.95,3.41-1.98-1.95-2.88-6.71,1.04-9.5,4.2-2.68,7.07,2.16,5.1,4.72-3.13-2.92-5.02,4.37,1.37,2.83,3.07-.88,3.99-4.32,3.72-9.17l1.74-2.05,1.74,2.05c-.28,4.85.65,8.28,3.72,9.17,6.38,1.53,4.5-5.75,1.37-2.83-1.97-2.56.9-7.4,5.1-4.72,3.93,2.79,3.02,7.56,1.05,9.5-4.43,4.53-10.94.95-13.01-3.41h0Z"/>
  <path class="cls-2" d="M264.08,111.79c1.66.44,2.47,1.34,4.54,1.65,2.71.39,5.16-.56,7.33-3.14,2.18,2.58,4.63,3.53,7.34,3.14,2.07-.3,2.89-1.21,4.54-1.65,3.61-.97,5.8,2.61,8.31,1.59-1.63-.72-.41-6.73-6.18-4.97,5.22-10.08-9.83-10.14-7.29-3.92,1.64-1.19,4.26.38,2.36,2.93-1.59,1.88-4.89.41-5.33-2.64-.35-3.07.63-5.93,4.85-8.33-4.22-2.39-5.2-5.24-4.85-8.31.45-3.05,3.74-4.53,5.33-2.64,1.91,2.56-.72,4.12-2.36,2.93.34,1.54.36,1.56,0,.01-2.54,6.22,12.52,6.15,7.29-3.92,5.77,1.75,4.55-4.26,6.18-4.98-2.5-1.03-4.7,2.56-8.3,1.59-1.67-.45-2.47-1.35-4.55-1.65-2.7-.39-5.16.56-7.33,3.14-2.17-2.58-4.62-3.53-7.33-3.14-2.07.3-2.89,1.21-4.55,1.65-3.6.96-5.8-2.62-8.3-1.59,1.63.72.41,6.73,6.18,4.98-5.22,10.08,9.83,10.13,7.29,3.93,0,0,0-.01,0-.02-1.64,1.19-4.27-.37-2.36-2.93,1.59-1.88,4.88-.4,5.33,2.64.35,3.09-.63,5.93-4.85,8.32,4.22,2.39,5.2,5.25,4.85,8.33-.45,3.05-3.74,4.53-5.33,2.64-1.9-2.55.72-4.12,2.36-2.93,0,0,0,0,0-.01,2.53-6.21-12.51-6.14-7.3,3.93-5.76-1.74-4.54,4.27-6.18,4.98,2.5,1.03,4.69-2.56,8.3-1.59Z"/>
  <path class="cls-2" d="M341.63,111.79c1.66.44,2.47,1.34,4.54,1.65,2.71.39,5.16-.56,7.33-3.14,2.18,2.58,4.63,3.53,7.34,3.14,2.07-.3,2.89-1.21,4.54-1.65,3.61-.97,5.8,2.61,8.31,1.59-1.63-.72-.41-6.73-6.18-4.97,5.22-10.08-9.83-10.14-7.29-3.92,1.64-1.19,4.26.38,2.36,2.93-1.59,1.88-4.89.41-5.33-2.64-.35-3.07.63-5.93,4.85-8.33-4.22-2.39-5.2-5.24-4.85-8.31.45-3.05,3.74-4.53,5.33-2.64,1.91,2.56-.72,4.12-2.36,2.93.34,1.54.36,1.56,0,.01-2.54,6.22,12.52,6.15,7.29-3.92,5.77,1.75,4.55-4.26,6.18-4.98-2.5-1.03-4.7,2.56-8.3,1.59-1.67-.45-2.47-1.35-4.55-1.65-2.7-.39-5.16.56-7.33,3.14-2.17-2.58-4.62-3.53-7.33-3.14-2.07.3-2.89,1.21-4.55,1.65-3.6.96-5.8-2.62-8.3-1.59,1.63.72.41,6.73,6.18,4.98-5.22,10.08,9.83,10.13,7.29,3.93,0,0,0-.01,0-.02-1.64,1.19-4.27-.37-2.36-2.93,1.59-1.88,4.88-.4,5.33,2.64.35,3.09-.63,5.93-4.85,8.32,4.22,2.39,5.2,5.25,4.85,8.33-.45,3.05-3.74,4.53-5.33,2.64-1.9-2.55.72-4.12,2.36-2.93,0,0,0,0,0-.01,2.53-6.21-12.51-6.14-7.3,3.93-5.76-1.74-4.54,4.27-6.18,4.98,2.5,1.03,4.69-2.56,8.3-1.59Z"/>
  <g>
    <path class="cls-1" d="M131.8,113.19l12.7-30.26c.61-1.45,1.31-2.44,2.09-2.99.78-.54,1.93-.81,3.44-.81s2.58.28,3.39.84c.82.56,1.53,1.55,2.14,2.96l12.7,30.26h-6.69l-3.47-8.51h-16.21l-3.42,8.51h-6.69ZM149.08,86.44l-5.53,13.71h12.94l-5.49-13.71c-.35-.93-.68-1.4-.96-1.4s-.61.47-.96,1.4Z"/>
    <path class="cls-1" d="M169.86,113.19v-5.05h18.67c2.12,0,3.18-1.22,3.18-3.66,0-1.86-1.09-3.13-3.27-3.8l-13.28-4.18c-2.12-.68-3.6-1.71-4.45-3.1-.85-1.4-1.28-3.31-1.28-5.75s.64-4.48,1.92-5.94,3.21-2.19,5.77-2.19h19.39v5.05h-17.71c-.87,0-1.56.27-2.07.81-.51.55-.77,1.4-.77,2.55,0,.93.18,1.7.55,2.31.37.61,1.16,1.11,2.38,1.49l12.32,3.9c2.53.8,4.34,1.84,5.41,3.13,1.07,1.29,1.61,3.21,1.61,5.77s-.59,4.74-1.76,6.3c-1.17,1.57-2.99,2.36-5.46,2.36h-21.17Z"/>
    <path class="cls-1" d="M209.41,113.19h-6.35v-33.68h6.35v33.68Z"/>
    <path class="cls-1" d="M212.01,113.19l12.7-30.26c.61-1.45,1.31-2.44,2.09-2.99.78-.54,1.93-.81,3.44-.81s2.58.28,3.39.84c.82.56,1.53,1.55,2.14,2.96l12.7,30.26h-6.69l-3.47-8.51h-16.21l-3.42,8.51h-6.69ZM229.29,86.44l-5.53,13.71h12.94l-5.49-13.71c-.35-.93-.68-1.4-.96-1.4s-.61.47-.96,1.4Z"/>
  </g>
</svg>