<?xml version="1.0" encoding="UTF-8"?>
<svg id="_Слой_1" data-name="Слой 1" xmlns="http://www.w3.org/2000/svg" viewBox="0 0 264.21 87.88">
  <defs>
    <style>
      .cls-1 {
        fill: #777372;
      }

      .cls-2 {
        fill: #787272;
      }

      .cls-3 {
        fill: #aeb51d;
      }
    </style>
  </defs>
  <g>
    <g>
      <path class="cls-1" d="M108.06,48.83h-5.14v-27.26h5.14v27.26Z"/>
      <path class="cls-1" d="M138.82,45.29c0,2.57-1.35,3.85-4.05,3.85-1.97,0-3.44-.76-4.4-2.3l-11.49-18.15c-.29-.44-.49-.66-.62-.66-.36,0-.54.26-.54.78v20.02h-4.98v-23.87c0-1.17.37-2.08,1.11-2.73.74-.65,1.76-.97,3.06-.97,1.97,0,3.41.71,4.32,2.14l11.57,18.27c.29.44.49.66.62.66.29,0,.43-.22.43-.66v-20.1h4.98v23.72Z"/>
      <path class="cls-1" d="M165.19,25.66h-15.26c-.44,0-.77.11-.98.33-.21.22-.31.58-.31,1.07v5.92h12.07v4.09h-12.07v11.76h-5.14v-23.68c0-1.09.34-1.96,1.01-2.61.67-.65,1.65-.97,2.92-.97h17.76v4.09Z"/>
      <path class="cls-1" d="M194.9,35.2c0,5.35-1.04,9.04-3.11,11.06-1.3,1.27-3.09,2.12-5.37,2.53-1.3.23-3.13.35-5.49.35s-4.23-.11-5.53-.35c-2.23-.42-4.02-1.27-5.37-2.57-1.35-1.3-2.26-3.13-2.73-5.49-.26-1.32-.39-3.16-.39-5.53s.16-4.42.47-5.88c.47-2.21,1.36-3.94,2.69-5.2,1.32-1.26,3.1-2.1,5.34-2.51,1.27-.23,3.12-.35,5.53-.35s4.23.11,5.53.35c2.23.42,4.01,1.26,5.34,2.53,2.08,2,3.11,5.69,3.11,11.06ZM189.6,35.2c0-3.71-.56-6.26-1.67-7.63-1.19-1.48-3.54-2.22-7.05-2.22s-5.8.72-6.95,2.16c-1.15,1.44-1.73,4.01-1.73,7.69s.56,6.17,1.67,7.59c.73.94,1.74,1.57,3.04,1.91.93.23,2.26.35,3.97.35s3.04-.12,3.97-.35c1.3-.34,2.32-.97,3.08-1.91,1.12-1.4,1.67-3.93,1.67-7.59Z"/>
      <path class="cls-1" d="M223.87,48.83h-6.46l-8.96-8.84c-.86-.86-1.29-1.62-1.29-2.3v-.62c0-1.25.77-1.87,2.3-1.87h5.14c1.35,0,2.28-.4,2.8-1.21.42-.65.62-1.89.62-3.74s-.32-3.13-.97-3.78c-.54-.55-1.51-.82-2.88-.82h-8.33c-.57,0-1.03.15-1.38.45-.35.3-.53.8-.53,1.5v21.22h-5.14v-22.62c0-1.64.38-2.82,1.13-3.54.75-.73,1.84-1.09,3.27-1.09h12.93c2.78,0,4.72.83,5.84,2.49.91,1.35,1.36,3.35,1.36,6s-.39,4.7-1.17,6.15c-1.01,1.87-2.73,2.81-5.14,2.81h-3.5v.19l10.36,9.62Z"/>
      <path class="cls-1" d="M261.33,48.83h-5.14l.15-21.22c0-.55-.15-.82-.47-.82-.21,0-.43.3-.66.9l-6.97,18.19c-.44,1.17-.88,1.97-1.32,2.41-.6.57-1.45.86-2.57.86s-2.07-.32-2.69-.97c-.39-.41-.79-1.18-1.21-2.3l-6.97-18.19c-.23-.6-.46-.9-.66-.9-.29,0-.43.27-.43.82l.12,21.22h-5.14v-23.99c0-2.39,1.47-3.58,4.4-3.58,1.43,0,2.53.35,3.31,1.05.54.47,1.04,1.29,1.48,2.45l7.05,18.19c.26.67.51,1.01.74,1.01s.48-.34.74-1.01l7.05-18.19c.55-1.4,1.25-2.37,2.11-2.92.65-.39,1.54-.58,2.69-.58,2.93,0,4.4,1.19,4.4,3.58v23.99Z"/>
    </g>
    <g>
      <path class="cls-3" d="M61.61,30.84c0,3.73-.8,6.26-2.4,7.57-1.1.89-2.51,1.34-4.22,1.34h-12.93v9.78h-5.21v-23.46c0-1.42.34-2.47,1.01-3.13.67-.67,1.69-1.01,3.06-1.01h13.13c2.52,0,4.35.55,5.48,1.66,1.39,1.34,2.09,3.76,2.09,7.26ZM56.25,30.8c0-1.84-.32-3.09-.95-3.75-.63-.66-1.72-.99-3.27-.99h-8.4c-.58,0-.99.12-1.22.36-.24.24-.36.67-.36,1.3v7.89h9.9c1.66,0,2.79-.34,3.39-1.03.6-.68.91-1.95.91-3.79Z"/>
      <g>
        <path class="cls-3" d="M23.22,22.24c-.68-.47-1.63-.7-2.84-.7s-2.22.23-2.88.69c-.66.46-1.24,1.04-1.75,2.25l-10.62,25.07h5.59l2.86-6.55h13.56l2.9,6.55h5.6l-10.63-25.07c-.51-1.18-1.11-1.76-1.79-2.23ZM14.95,39.45l4.63-11.64c.32-.78.59-1.25.81-1.25s.48.51.81,1.29l4.59,11.6h-10.83Z"/>
        <path class="cls-3" d="M80.39,37.91c-1.21-1.07-1.81-1.81-1.81-2.45,0-.51.5-1.19,1.49-2.13l12.15-11.51h-6.56l-10.66,10.56c-1.02,1.02-1.53,2.09-1.53,3.19,0,1.21.64,2.17,1.93,3.38l11.59,10.58h6.72l-13.32-11.62Z"/>
      </g>
      <path class="cls-3" d="M70.21,18.08c-.79-1.95-1.7-3.89-2.95-5.59-.24-.32-.46-.61-.67-.89-.42-.57-.83-.97-1.1-1.28-.28-.31-.43-.48-.43-.48,0,0,.18.15.49.42.3.28.78.63,1.27,1.15.25.25.53.52.81.81.27.31.55.63.84.97.29.34.55.72.84,1.1.28.38.52.8.79,1.2.24.42.47.85.69,1.27.19.44.41.86.56,1.29.17.43.31.85.42,1.26.13.4.2.8.29,1.17.05.29.09.56.13.81,1.02-3.02,1.3-7.53-.81-10.98-3.47-5.68-12.72-6.3-12.72-6.3,0,0-3.75,8.58-.28,14.25,1.85,3.03,5.68,4.62,8.2,5.44v25.81h5.04v-25.45c0-2.08-.65-4.13-1.4-6Z"/>
    </g>
  </g>
  <path class="cls-3" d="M57.1,68.18c1.28-1.14,1.36-2.59.25-4.24-2.22,2.89-5.09,3.26-8.6,1.1v6.27c3.51-2.15,6.38-1.78,8.6,1.11,1.11-1.64,1.02-3.1-.25-4.24h0ZM43.6,71.31c-3.52-2.15-6.38-1.78-8.6,1.11-1.11-1.64-1.02-3.11.25-4.24-1.28-1.14-1.36-2.59-.25-4.23,2.22,2.89,5.09,3.26,8.6,1.11v6.26ZM46.14,60.07c-1.45-3.04-5.96-5.55-9.04-2.38-1.38,1.36-2.01,4.69.73,6.64,2.94,1.87,4.94-1.51,3.56-3.3-2.19,2.04-3.5-3.05.96-1.98,2.14.62,2.79,3.01,2.6,6.41l1.21,1.43,1.22-1.43c-.19-3.39.45-5.79,2.6-6.41,4.45-1.07,3.14,4.02.95,1.98-1.37,1.79.63,5.17,3.56,3.3,2.74-1.95,2.11-5.28.73-6.64-3.09-3.17-7.64-.66-9.09,2.38h0ZM46.14,76.29c-1.45,3.04-5.96,5.54-9.04,2.38-1.38-1.36-2.01-4.69.73-6.64,2.94-1.87,4.94,1.51,3.56,3.3-2.19-2.04-3.5,3.05.96,1.98,2.14-.62,2.79-3.01,2.6-6.41l1.21-1.43,1.22,1.43c-.19,3.39.45,5.79,2.6,6.41,4.45,1.07,3.14-4.02.95-1.98-1.37-1.79.63-5.17,3.56-3.3,2.74,1.95,2.11,5.28.73,6.64-3.09,3.17-7.64.66-9.09-2.38h0Z"/>
  <path class="cls-3" d="M10.93,78.89c1.16.31,1.73.94,3.17,1.15,1.89.27,3.6-.39,5.12-2.2,1.52,1.8,3.23,2.47,5.13,2.2,1.45-.21,2.02-.84,3.17-1.15,2.52-.68,4.05,1.83,5.8,1.11-1.14-.5-.29-4.7-4.32-3.47,3.65-7.04-6.87-7.08-5.1-2.74,1.15-.83,2.98.27,1.65,2.05-1.11,1.32-3.41.28-3.72-1.84-.24-2.15.44-4.14,3.39-5.82-2.95-1.67-3.63-3.66-3.39-5.8.31-2.13,2.61-3.16,3.72-1.84,1.33,1.79-.5,2.88-1.65,2.05.24,1.07.25,1.09,0,0-1.77,4.34,8.74,4.3,5.1-2.74,4.03,1.22,3.18-2.98,4.32-3.48-1.75-.72-3.28,1.79-5.8,1.11-1.16-.31-1.73-.94-3.18-1.15-1.89-.27-3.61.39-5.12,2.2-1.51-1.8-3.22-2.47-5.12-2.2-1.45.21-2.02.84-3.18,1.15-2.52.67-4.05-1.83-5.8-1.11,1.14.5.29,4.7,4.32,3.48-3.65,7.04,6.86,7.08,5.09,2.74,0,0,0,0,0-.01-1.15.83-2.98-.26-1.65-2.05,1.11-1.31,3.41-.28,3.72,1.84.24,2.16-.44,4.14-3.39,5.81,2.95,1.67,3.63,3.67,3.39,5.82-.32,2.13-2.61,3.16-3.72,1.84-1.33-1.78.5-2.88,1.65-2.05,0,0,0,0,0,0,1.77-4.34-8.74-4.29-5.1,2.74-4.03-1.22-3.17,2.98-4.32,3.48,1.75.72,3.28-1.79,5.8-1.11Z"/>
  <path class="cls-3" d="M65.1,78.89c1.16.31,1.73.94,3.17,1.15,1.89.27,3.6-.39,5.12-2.2,1.52,1.8,3.23,2.47,5.13,2.2,1.45-.21,2.02-.84,3.17-1.15,2.52-.68,4.05,1.83,5.8,1.11-1.14-.5-.29-4.7-4.32-3.47,3.65-7.04-6.87-7.08-5.1-2.74,1.15-.83,2.98.27,1.65,2.05-1.11,1.32-3.41.28-3.72-1.84-.24-2.15.44-4.14,3.39-5.82-2.95-1.67-3.63-3.66-3.39-5.8.31-2.13,2.61-3.16,3.72-1.84,1.33,1.79-.5,2.88-1.65,2.05.24,1.07.25,1.09,0,0-1.77,4.34,8.74,4.3,5.1-2.74,4.03,1.22,3.18-2.98,4.32-3.48-1.75-.72-3.28,1.79-5.8,1.11-1.16-.31-1.73-.94-3.18-1.15-1.89-.27-3.61.39-5.12,2.2-1.51-1.8-3.22-2.47-5.12-2.2-1.45.21-2.02.84-3.18,1.15-2.52.67-4.05-1.83-5.8-1.11,1.14.5.29,4.7,4.32,3.48-3.65,7.04,6.86,7.08,5.09,2.74,0,0,0,0,0-.01-1.15.83-2.98-.26-1.65-2.05,1.11-1.31,3.41-.28,3.72,1.84.24,2.16-.44,4.14-3.39,5.81,2.95,1.67,3.63,3.67,3.39,5.82-.32,2.13-2.61,3.16-3.72,1.84-1.33-1.78.5-2.88,1.65-2.05,0,0,0,0,0,0,1.77-4.34-8.74-4.29-5.1,2.74-4.03-1.22-3.17,2.98-4.32,3.48,1.75.72,3.28-1.79,5.8-1.11Z"/>
  <path class="cls-3" d="M230.94,68.18c1.28-1.14,1.36-2.59.25-4.24-2.22,2.89-5.09,3.26-8.6,1.1v6.27c3.51-2.15,6.38-1.78,8.6,1.11,1.11-1.64,1.02-3.1-.25-4.24h0ZM217.44,71.31c-3.52-2.15-6.38-1.78-8.6,1.11-1.11-1.64-1.02-3.11.25-4.24-1.28-1.14-1.36-2.59-.25-4.23,2.22,2.89,5.09,3.26,8.6,1.11v6.26ZM219.99,60.07c-1.45-3.04-5.96-5.55-9.04-2.38-1.38,1.36-2.01,4.69.73,6.64,2.94,1.87,4.94-1.51,3.56-3.3-2.19,2.04-3.5-3.05.96-1.98,2.14.62,2.79,3.01,2.6,6.41l1.21,1.43,1.22-1.43c-.19-3.39.45-5.79,2.6-6.41,4.45-1.07,3.14,4.02.95,1.98-1.37,1.79.63,5.17,3.56,3.3,2.74-1.95,2.11-5.28.73-6.64-3.09-3.17-7.64-.66-9.09,2.38h0ZM219.99,76.29c-1.45,3.04-5.96,5.54-9.04,2.38-1.38-1.36-2.01-4.69.73-6.64,2.94-1.87,4.94,1.51,3.56,3.3-2.19-2.04-3.5,3.05.96,1.98,2.14-.62,2.79-3.01,2.6-6.41l1.21-1.43,1.22,1.43c-.19,3.39.45,5.79,2.6,6.41,4.45,1.07,3.14-4.02.95-1.98-1.37-1.79.63-5.17,3.56-3.3,2.74,1.95,2.11,5.28.73,6.64-3.09,3.17-7.64.66-9.09-2.38h0Z"/>
  <path class="cls-3" d="M184.77,78.89c1.16.31,1.73.94,3.17,1.15,1.89.27,3.6-.39,5.12-2.2,1.52,1.8,3.23,2.47,5.13,2.2,1.45-.21,2.02-.84,3.17-1.15,2.52-.68,4.05,1.83,5.8,1.11-1.14-.5-.29-4.7-4.32-3.47,3.65-7.04-6.87-7.08-5.1-2.74,1.15-.83,2.98.27,1.65,2.05-1.11,1.32-3.41.28-3.72-1.84-.24-2.15.44-4.14,3.39-5.82-2.95-1.67-3.63-3.66-3.39-5.8.31-2.13,2.61-3.16,3.72-1.84,1.33,1.79-.5,2.88-1.65,2.05.24,1.07.25,1.09,0,0-1.77,4.34,8.74,4.3,5.1-2.74,4.03,1.22,3.18-2.98,4.32-3.48-1.75-.72-3.28,1.79-5.8,1.11-1.16-.31-1.73-.94-3.18-1.15-1.89-.27-3.61.39-5.12,2.2-1.51-1.8-3.22-2.47-5.12-2.2-1.45.21-2.02.84-3.18,1.15-2.52.67-4.05-1.83-5.8-1.11,1.14.5.29,4.7,4.32,3.48-3.65,7.04,6.86,7.08,5.09,2.74,0,0,0,0,0-.01-1.15.83-2.98-.26-1.65-2.05,1.11-1.31,3.41-.28,3.72,1.84.24,2.16-.44,4.14-3.39,5.81,2.95,1.67,3.63,3.67,3.39,5.82-.32,2.13-2.61,3.16-3.72,1.84-1.33-1.78.5-2.88,1.65-2.05,0,0,0,0,0,0,1.77-4.34-8.74-4.29-5.1,2.74-4.03-1.22-3.17,2.98-4.32,3.48,1.75.72,3.28-1.79,5.8-1.11Z"/>
  <path class="cls-3" d="M238.94,78.89c1.16.31,1.73.94,3.17,1.15,1.89.27,3.6-.39,5.12-2.2,1.52,1.8,3.23,2.47,5.13,2.2,1.45-.21,2.02-.84,3.17-1.15,2.52-.68,4.05,1.83,5.8,1.11-1.14-.5-.29-4.7-4.32-3.47,3.65-7.04-6.87-7.08-5.1-2.74,1.15-.83,2.98.27,1.65,2.05-1.11,1.32-3.41.28-3.72-1.84-.24-2.15.44-4.14,3.39-5.82-2.95-1.67-3.63-3.66-3.39-5.8.31-2.13,2.61-3.16,3.72-1.84,1.33,1.79-.5,2.88-1.65,2.05.24,1.07.25,1.09,0,0-1.77,4.34,8.74,4.3,5.1-2.74,4.03,1.22,3.18-2.98,4.32-3.48-1.75-.72-3.28,1.79-5.8,1.11-1.16-.31-1.73-.94-3.18-1.15-1.89-.27-3.61.39-5.12,2.2-1.51-1.8-3.22-2.47-5.12-2.2-1.45.21-2.02.84-3.18,1.15-2.52.67-4.05-1.83-5.8-1.11,1.14.5.29,4.7,4.32,3.48-3.65,7.04,6.86,7.08,5.09,2.74,0,0,0,0,0-.01-1.15.83-2.98-.26-1.65-2.05,1.11-1.31,3.41-.28,3.72,1.84.24,2.16-.44,4.14-3.39,5.81,2.95,1.67,3.63,3.67,3.39,5.82-.32,2.13-2.61,3.16-3.72,1.84-1.33-1.78.5-2.88,1.65-2.05,0,0,0,0,0,0,1.77-4.34-8.74-4.29-5.1,2.74-4.03-1.22-3.17,2.98-4.32,3.48,1.75.72,3.28-1.79,5.8-1.11Z"/>
  <g>
    <path class="cls-2" d="M92.38,79.87l8.87-21.14c.43-1.01.91-1.7,1.46-2.09.55-.38,1.35-.57,2.4-.57s1.8.19,2.37.59c.57.39,1.07,1.08,1.5,2.07l8.87,21.14h-4.67l-2.42-5.95h-11.33l-2.39,5.95h-4.67ZM104.44,61.18l-3.86,9.58h9.04l-3.83-9.58c-.25-.65-.47-.98-.67-.98s-.43.33-.67.98Z"/>
    <path class="cls-2" d="M118.96,79.87v-3.53h13.04c1.48,0,2.22-.85,2.22-2.55,0-1.3-.76-2.18-2.29-2.65l-9.28-2.92c-1.48-.47-2.52-1.2-3.11-2.17-.59-.98-.89-2.31-.89-4.02s.45-3.13,1.34-4.15,2.24-1.53,4.03-1.53h13.55v3.53h-12.37c-.61,0-1.09.19-1.45.57-.36.38-.54.98-.54,1.78,0,.65.13,1.19.39,1.61.26.42.81.77,1.66,1.04l8.6,2.73c1.77.56,3.03,1.29,3.78,2.18.75.9,1.13,2.24,1.13,4.03s-.41,3.31-1.23,4.4c-.82,1.1-2.09,1.65-3.81,1.65h-14.79Z"/>
    <path class="cls-2" d="M146.59,79.87h-4.44v-23.53h4.44v23.53Z"/>
    <path class="cls-2" d="M148.4,79.87l8.87-21.14c.43-1.01.91-1.7,1.46-2.09.55-.38,1.35-.57,2.4-.57s1.8.19,2.37.59c.57.39,1.07,1.08,1.5,2.07l8.87,21.14h-4.67l-2.42-5.95h-11.33l-2.39,5.95h-4.67ZM160.47,61.18l-3.86,9.58h9.04l-3.83-9.58c-.25-.65-.47-.98-.67-.98s-.43.33-.67.98Z"/>
  </g>
</svg>