<?xml version="1.0" encoding="UTF-8"?>
<svg id="_Слой_1" data-name="Слой 1" xmlns="http://www.w3.org/2000/svg" xmlns:xlink="http://www.w3.org/1999/xlink" viewBox="0 0 264.21 87.88">
  <defs>
    <style>
      .cls-1 {
        fill: url(#_Новий_зразок_градієнта_3);
      }

      .cls-2 {
        fill: url(#_Градієнт_без_назви_12);
      }

      .cls-3 {
        fill: #91bc4b;
      }

      .cls-4 {
        fill: url(#_Новий_зразок_градієнта_2);
      }

      .cls-5 {
        fill: url(#_Новий_зразок_градієнта_4);
      }

      .cls-6 {
        fill: url(#_Градієнт_без_назви_40);
      }

      .cls-7 {
        fill: url(#_Градієнт_без_назви_46);
      }

      .cls-8 {
        fill: #a6ca65;
      }

      .cls-9 {
        fill: #ffd62c;
      }

      .cls-10 {
        fill: #2763ac;
      }

      .cls-11 {
        fill: #588d3e;
      }

      .cls-12 {
        fill: url(#_Новий_зразок_градієнта_1);
      }

      .cls-13 {
        fill: url(#_Градієнт_без_назви_12-2);
      }
    </style>
    <radialGradient id="_Новий_зразок_градієнта_2" data-name="Новий зразок градієнта 2" cx="660.76" cy="-432.94" fx="660.76" fy="-432.94" r="8.41" gradientTransform="translate(1170.79 758.69) rotate(-121.6) scale(1.85 1.34)" gradientUnits="userSpaceOnUse">
      <stop offset="0" stop-color="#a6ca65"/>
      <stop offset="1" stop-color="#79a242"/>
    </radialGradient>
    <linearGradient id="_Градієнт_без_назви_12" data-name="Градієнт без назви 12" x1="130.39" y1="104.23" x2="133.96" y2="108.74" gradientTransform="translate(-93.29 -102.05) rotate(4.5)" gradientUnits="userSpaceOnUse">
      <stop offset="0" stop-color="#fff"/>
      <stop offset="1" stop-color="#fff" stop-opacity="0"/>
    </linearGradient>
    <linearGradient id="_Градієнт_без_назви_40" data-name="Градієнт без назви 40" x1="194.56" y1="175.85" x2="201.1" y2="167.96" gradientTransform="translate(-144.26 -166.14) rotate(7.2)" gradientUnits="userSpaceOnUse">
      <stop offset="0" stop-color="#588d3e"/>
      <stop offset="1" stop-color="#588d3e" stop-opacity="0"/>
    </linearGradient>
    <radialGradient id="_Новий_зразок_градієнта_4" data-name="Новий зразок градієнта 4" cx="670.37" cy="-436.55" fx="670.37" fy="-436.55" r="8.23" gradientTransform="translate(-51.59 1326.44) rotate(-66.32) scale(1.85 .99)" gradientUnits="userSpaceOnUse">
      <stop offset=".12" stop-color="#79a242"/>
      <stop offset=".47" stop-color="#76a041"/>
      <stop offset=".72" stop-color="#6c9a40"/>
      <stop offset=".95" stop-color="#5c903e"/>
      <stop offset="1" stop-color="#588d3e"/>
    </radialGradient>
    <linearGradient id="_Градієнт_без_назви_12-2" data-name="Градієнт без назви 12" x1="156.78" y1="94.07" x2="154.63" y2="101.26" xlink:href="#_Градієнт_без_назви_12"/>
    <linearGradient id="_Градієнт_без_назви_46" data-name="Градієнт без назви 46" x1="1287.25" y1="-2986.32" x2="1294.74" y2="-2986.44" gradientTransform="translate(3022.49 -1304.12) rotate(-137.55)" gradientUnits="userSpaceOnUse">
      <stop offset="0" stop-color="#a6ca65"/>
      <stop offset="1" stop-color="#a6ca65" stop-opacity="0"/>
    </linearGradient>
    <linearGradient id="_Новий_зразок_градієнта_3" data-name="Новий зразок градієнта 3" x1="51.06" y1="85.32" x2="6.58" y2="42.87" gradientUnits="userSpaceOnUse">
      <stop offset="0" stop-color="#3e742f"/>
      <stop offset="1" stop-color="#79a242"/>
    </linearGradient>
    <linearGradient id="_Новий_зразок_градієнта_1" data-name="Новий зразок градієнта 1" x1="48.18" y1="66.15" x2="78.6" y2="28.46" gradientUnits="userSpaceOnUse">
      <stop offset="0" stop-color="#79a242"/>
      <stop offset="1" stop-color="#a6ca65"/>
    </linearGradient>
  </defs>
  <g>
    <g>
      <path class="cls-11" d="M85.73,48.78h5.22c3.2,0,5.3,1.78,5.3,4.56v.24c0,2.84-2.12,4.62-5.3,4.62h-1.97v4.4h-3.24v-13.82ZM90.58,55.77c1.5,0,2.45-.85,2.45-2.13v-.22c0-1.26-.91-1.99-2.39-1.99h-1.75v4.34h1.68Z"/>
      <path class="cls-11" d="M98.12,57.54v-8.77h3.24v8.61c0,1.74,1.08,2.67,2.68,2.67s2.62-.93,2.62-2.67v-8.61h3.24v8.77c0,3.48-2.29,5.31-5.88,5.31s-5.9-1.94-5.9-5.31Z"/>
      <path class="cls-11" d="M112.61,48.78h3.24v11.14h5.2v2.69h-8.44v-13.82Z"/>
      <path class="cls-11" d="M121.92,60.94l1.73-2.45c1.16,1.03,2.85,1.52,4.18,1.52s2-.45,2-1.3c0-1.32-1.6-1.38-4.34-2.35-1.68-.59-3.12-1.52-3.12-3.83s2.1-4.01,4.86-4.01c2.06,0,3.74.61,5.34,1.72l-1.7,2.43c-1.08-.91-2.52-1.34-3.62-1.34-1.16,0-1.75.49-1.75,1.26,0,1.13,1.5,1.34,3.49,1.94,2,.57,4.1,1.46,4.1,4.03s-2.1,4.29-5.45,4.29c-2.1,0-4.2-.71-5.72-1.9Z"/>
      <path class="cls-11" d="M134.94,48.78h8.79v2.69h-5.55v2.92h5.13v2.55h-5.13v2.98h5.76v2.69h-9v-13.82Z"/>
      <path class="cls-11" d="M151.02,58.95c0-1.8,1.27-3.32,3.04-4.05l-.02-.02c-1.21-1.3-1.5-1.93-1.5-2.94,0-2.07,1.64-3.42,4.12-3.42s4.01,1.3,4.01,3.3c0,1.42-1,2.76-2.56,3.57l2.41,2.57c.27-.59.46-1.32.46-2.09v-.69h2.54v1.2c0,1.28-.42,2.59-1.06,3.53l2.52,2.69h-3.64l-.83-.89c-1.16.69-2.6,1.13-4.22,1.13-3.22,0-5.26-1.52-5.26-3.89ZM155.72,56.65c-1.21.41-1.87,1.13-1.87,2.07,0,1.15,1,1.88,2.6,1.88.91,0,1.7-.22,2.37-.65l-3.1-3.3ZM158.15,51.84c0-.75-.56-1.22-1.41-1.22s-1.46.49-1.46,1.18.58,1.2,1.33,1.97c1.16-.73,1.54-1.17,1.54-1.94Z"/>
      <path class="cls-11" d="M171.13,60.94l1.73-2.45c1.16,1.03,2.85,1.52,4.18,1.52s2-.45,2-1.3c0-1.32-1.6-1.38-4.34-2.35-1.68-.59-3.12-1.52-3.12-3.83s2.1-4.01,4.86-4.01c2.06,0,3.74.61,5.34,1.72l-1.7,2.43c-1.08-.91-2.52-1.34-3.62-1.34-1.16,0-1.75.49-1.75,1.26,0,1.13,1.5,1.34,3.49,1.94,2,.57,4.1,1.46,4.1,4.03s-2.1,4.29-5.45,4.29c-2.1,0-4.2-.71-5.72-1.9Z"/>
      <path class="cls-11" d="M183.37,55.49c0-4.21,2.83-6.99,7.01-6.99h.27c4.12,0,7.01,2.82,7.01,6.99v.39c0,4.17-2.89,6.99-7.01,6.99h-.27c-4.12,0-7.01-2.84-7.01-6.99v-.39ZM190.4,60.19h.23c2.16,0,3.66-1.66,3.66-4.3v-.39c0-2.63-1.5-4.29-3.66-4.29h-.23c-2.14,0-3.66,1.66-3.66,4.29v.39c0,2.65,1.52,4.3,3.66,4.3Z"/>
      <path class="cls-11" d="M201.85,57.21l-4.97-8.43h3.74l2.79,5.55h.15l2.76-5.55h3.72l-4.93,8.43v5.39h-3.26v-5.39Z"/>
      <path class="cls-11" d="M211.12,48.78h5.51c2.89,0,4.91,1.32,4.91,3.38v.24c0,1.2-.56,2.15-1.83,2.84,1.6.65,2.49,1.88,2.49,3.36v.26c0,2.29-1.95,3.75-4.99,3.75h-6.09v-13.82ZM216.5,54.5c1.14,0,1.93-.59,1.93-1.5v-.22c0-.87-.73-1.42-1.89-1.42h-2.29v3.14h2.25ZM217.02,59.99c1.18,0,2.02-.57,2.02-1.5v-.24c0-.97-.85-1.58-2.08-1.58h-2.7v3.32h2.76Z"/>
      <path class="cls-11" d="M224.3,48.78h8.79v2.69h-5.55v2.92h5.13v2.55h-5.13v2.98h5.76v2.69h-9v-13.82Z"/>
      <path class="cls-11" d="M238.87,48.78h4.16l4.8,13.82h-3.47l-.94-2.88h-5.01l-.91,2.88h-3.47l4.84-13.82ZM242.76,57.25l-1.7-5.27h-.23l-1.73,5.27h3.66Z"/>
      <path class="cls-11" d="M249.01,48.78h3.78l4.99,8.93h.1v-8.93h3.14v13.82h-3.22l-5.53-9.81h-.15v9.81h-3.12v-13.82Z"/>
    </g>
    <g>
      <path class="cls-3" d="M89.39,66.88h2.41l5.11,13.82h-1.83l-1.41-3.97h-6.13l-1.43,3.97h-1.83l5.11-13.82ZM93.13,75.23l-2.49-6.95h-.08l-2.49,6.95h5.07Z"/>
      <path class="cls-3" d="M97.73,79.3l.91-1.11c1.1.83,2.29,1.24,3.6,1.24,1.48,0,2.29-.53,2.29-1.52,0-1.18-1.27-1.48-2.68-1.78-1.75-.38-3.7-.79-3.7-2.92,0-1.8,1.41-2.94,3.62-2.94,1.46,0,2.89.51,3.93,1.22l-.77,1.2c-.96-.61-2.1-.99-3.22-.99-1.23,0-1.95.49-1.95,1.36,0,1.05,1.23,1.32,2.62,1.62,1.77.4,3.78.85,3.78,3.06,0,1.94-1.54,3.1-3.97,3.1-1.73,0-3.39-.59-4.45-1.56Z"/>
      <path class="cls-3" d="M107.64,79.3l.91-1.11c1.1.83,2.29,1.24,3.6,1.24,1.48,0,2.29-.53,2.29-1.52,0-1.18-1.27-1.48-2.68-1.78-1.75-.38-3.7-.79-3.7-2.92,0-1.8,1.41-2.94,3.62-2.94,1.46,0,2.89.51,3.93,1.22l-.77,1.2c-.96-.61-2.1-.99-3.22-.99-1.23,0-1.95.49-1.95,1.36,0,1.05,1.23,1.32,2.62,1.62,1.77.4,3.78.85,3.78,3.06,0,1.94-1.54,3.1-3.97,3.1-1.73,0-3.39-.59-4.45-1.56Z"/>
      <path class="cls-3" d="M117.79,75.83v-.51c0-2.92,2.06-5,4.99-5h.21c2.93,0,4.99,2.07,4.99,5v.51c0,2.92-2.06,5-4.99,5h-.21c-2.93,0-4.99-2.07-4.99-5ZM122.96,79.36c2.04,0,3.39-1.46,3.39-3.53v-.51c0-2.09-1.37-3.53-3.39-3.53h-.17c-2.02,0-3.39,1.44-3.39,3.53v.51c0,2.07,1.35,3.53,3.39,3.53h.17Z"/>
      <path class="cls-3" d="M129.88,75.83v-.51c0-2.96,2.1-5,5.05-5h.17c1.85,0,3.47.95,4.37,2.59l-1.25.65c-.62-1.17-1.75-1.8-3.14-1.8h-.21c-2.04,0-3.37,1.42-3.37,3.55v.51c0,2.13,1.39,3.55,3.49,3.55h.21c1.27,0,2.33-.61,2.99-1.74l1.29.65c-.98,1.62-2.54,2.53-4.34,2.53h-.17c-3.04,0-5.09-2.03-5.09-5Z"/>
      <path class="cls-3" d="M141.69,67.81c0-.55.44-.99,1.02-.99s1.04.43,1.04.99-.46.97-1.04.97-1.02-.41-1.02-.97ZM141.94,70.44h1.54v10.27h-1.54v-10.27Z"/>
      <path class="cls-3" d="M146.24,77.82v-.14c0-2.21,2.04-3.3,6.19-3.3h1v-.71c0-1.2-.89-1.93-2.43-1.93h-.12c-1.14,0-2.41.41-3.33,1.11l-.77-1.2c1.31-.85,2.68-1.38,4.2-1.38h.12c2.41,0,3.87,1.28,3.87,3.3v5.47c0,.55.19,1.24.37,1.68h-1.58c-.12-.3-.23-.83-.29-1.26-1.1.93-2.37,1.42-3.68,1.42-2.1,0-3.55-1.2-3.55-3.04ZM153.44,77.8v-2.05h-.69c-3.49,0-4.93.55-4.93,1.92v.1c0,1.01.83,1.64,2.06,1.64,1.46,0,2.7-.63,3.55-1.6Z"/>
      <path class="cls-3" d="M158.55,78.06v-6.24h-1.46v-1.07c.44-.14,1-.3,1.46-.32v-2.37l1.54-.2v2.57h3.22v1.38h-3.22v5.94c0,1.22.52,1.6,1.5,1.6.5,0,1.48-.08,1.93-.22v1.3c-.5.2-1.54.32-2.22.32-1.87,0-2.74-.87-2.74-2.71Z"/>
      <path class="cls-3" d="M165.66,67.81c0-.55.44-.99,1.02-.99s1.04.43,1.04.99-.46.97-1.04.97-1.02-.41-1.02-.97ZM165.91,70.44h1.54v10.27h-1.54v-10.27Z"/>
      <path class="cls-3" d="M170.17,75.83v-.51c0-2.92,2.06-5,4.99-5h.21c2.93,0,4.99,2.07,4.99,5v.51c0,2.92-2.06,5-4.99,5h-.21c-2.93,0-4.99-2.07-4.99-5ZM175.35,79.36c2.04,0,3.39-1.46,3.39-3.53v-.51c0-2.09-1.37-3.53-3.39-3.53h-.17c-2.02,0-3.39,1.44-3.39,3.53v.51c0,2.07,1.35,3.53,3.39,3.53h.17Z"/>
      <path class="cls-3" d="M183.08,70.44h1.21c.12.36.27.93.31,1.38.87-.97,2.16-1.54,3.64-1.54h.15c2.45,0,3.7,1.36,3.7,3.85v6.58h-1.54v-6.32c0-1.68-.73-2.65-2.41-2.65h-.17c-1.98,0-3.35,1.2-3.35,3.18v5.79h-1.54v-10.27Z"/>
    </g>
    <g>
      <path class="cls-3" d="M86.06,37.39v-8.89h1.66v8.69c0,2.51,1.31,3.73,3.7,3.73s3.68-1.22,3.68-3.73v-8.69h1.66v8.89c0,3.32-1.91,5.09-5.34,5.09s-5.36-1.78-5.36-5.09Z"/>
      <path class="cls-3" d="M100.41,28.11h1.54v8.43h.08l4.78-4.48h1.95l-5.13,4.8,5.45,5.47h-2.1l-4.93-5.07h-.1v5.07h-1.54v-14.22Z"/>
      <path class="cls-3" d="M110.95,32.06h1.16c.12.36.27.85.33,1.3.77-.83,1.87-1.3,3.2-1.3h.25v1.52c-.15-.02-.44-.04-.64-.04-1.89,0-2.76,1.05-2.76,3.28v5.51h-1.54v-10.27Z"/>
      <path class="cls-3" d="M117.52,39.44v-.14c0-2.21,2.04-3.3,6.19-3.3h1v-.71c0-1.2-.89-1.93-2.43-1.93h-.12c-1.14,0-2.41.41-3.33,1.11l-.77-1.2c1.31-.85,2.68-1.38,4.2-1.38h.12c2.41,0,3.87,1.28,3.87,3.3v5.47c0,.55.19,1.24.37,1.68h-1.58c-.12-.3-.23-.83-.29-1.26-1.1.93-2.37,1.42-3.68,1.42-2.1,0-3.55-1.2-3.55-3.04ZM124.71,39.42v-2.05h-.69c-3.49,0-4.93.55-4.93,1.92v.1c0,1.01.83,1.64,2.06,1.64,1.46,0,2.7-.63,3.55-1.6Z"/>
      <path class="cls-3" d="M129.45,29.43c0-.55.44-.99,1.02-.99s1.04.43,1.04.99-.46.97-1.04.97-1.02-.41-1.02-.97ZM129.7,32.06h1.54v10.27h-1.54v-10.27Z"/>
      <path class="cls-3" d="M134.77,32.06h1.21c.12.36.27.93.31,1.38.87-.97,2.16-1.54,3.64-1.54h.15c2.45,0,3.7,1.36,3.7,3.85v6.58h-1.54v-6.32c0-1.68-.73-2.65-2.41-2.65h-.17c-1.98,0-3.35,1.2-3.35,3.18v5.79h-1.54v-10.27Z"/>
      <path class="cls-3" d="M146.28,37.51v-.38c0-3.1,2.04-5.19,5.07-5.19h.17c2.79,0,4.64,1.92,4.64,4.8v1.11h-8.23c.15,1.9,1.5,3.14,3.49,3.14h.21c1.48,0,2.43-.67,3.04-1.54l1.23.77c-1.02,1.44-2.47,2.23-4.39,2.23h-.17c-3.01,0-5.05-1.99-5.05-4.94ZM154.64,36.46c-.1-1.84-1.35-3.06-3.18-3.06h-.21c-1.83,0-3.06,1.18-3.31,3.06h6.69Z"/>
    </g>
  </g>
  <g>
    <g>
      <path class="cls-4" d="M39.04,18.23c1.93,3.28,4.32,5.39,5.77,8.62.97,2.14.04,5.05-2.84,6.62-4.41,2.41-10.1-.7-13.48-6.21-3.39-5.51-2.3-12.34.37-13.98,3.36-2.06,7.22-.08,10.18,4.95Z"/>
      <path class="cls-2" d="M28.96,18.23c-1.17-3.24,2.77-5.21,5.2-3.2-1.06.27-2.25.34-3.19.83-.94.51-1.46,1.36-2.02,2.37h0Z"/>
      <path class="cls-6" d="M27.6,19.41c1.2,2.64,4.2,5.86,6.33,7.78,2.33,2.11,6.54,5.12,6.54,5.12-4.92.82-9.09-2.39-11.33-6.34-1.21-2.14-1.54-6.56-1.54-6.56Z"/>
      <path class="cls-5" d="M42.48,29.07c1.97,1.95,5.28,2.18,7.84,1.22.21-.08.42-.17.62-.27,5.94-2.85,8.31-11.03,7.19-17.1-.25-1.38-.69-2.75-1.54-3.86-1.51-1.99-3.91-2.32-6.16-1.48-1.94.72-3.96,2.43-6.98,7.93-.58,1.06-5.62,8.97-.98,13.56Z"/>
      <path class="cls-13" d="M56.34,12.85c-1.27-1.75-2.68-2.82-4.85-2.84-.75-.03-1.49,0-2.28-.08,2.62-3.01,7.93-1.35,7.13,2.91h0Z"/>
      <g>
        <path class="cls-8" d="M45.98,70.46s0,.03,0,.04l-.73.15s0-.02,0-.03l.73-.16Z"/>
        <path class="cls-10" d="M45.98,70.46l-.73.16c-.37-2.91-.73-5.85-.79-8.78.39,3.09.96,6.06,1.52,8.63Z"/>
        <path class="cls-9" d="M44.74,56.35c.85-3.5,1.57-7.26.2-10.7.06-.24.13-.48.2-.71.43.94.72,1.95.86,2.98.27,1.91.15,3.85-.2,5.73-.39,1.85-.82,3.67-.79,5.58-.05,3.75.39,7.52.97,11.22-.56-2.57-1.12-5.53-1.52-8.63-.04-1.83.03-3.66.27-5.48Z"/>
        <path class="cls-10" d="M44.8,45.32c.05.11.1.22.14.33-1.33,4.84-1.17,10.72-.48,16.18.06,2.94.42,5.87.79,8.78-1.9-7.67-3.83-18.67-1.18-26.65.28.42.53.88.73,1.36Z"/>
        <path class="cls-9" d="M44.8,45.32c-.2-.49-.45-.94-.73-1.36.06-.2.13-.39.2-.58.33.5.62,1.02.87,1.57-.07.23-.14.47-.2.71-.04-.11-.09-.22-.14-.33Z"/>
        <path class="cls-10" d="M41.31,10.56c2.9-5.53,8.73-8.82,14.92-6.7,6.51,2.12,8.3,8.91,7,15.06-.78,3.95-3,7.47-5.68,10.4-1.28,1.47-2.61,2.91-3.99,4.3-2.78,2.68-5.48,5.31-7.36,8.68-.42.84-.76,1.72-1.05,2.65-.25-.55-.54-1.07-.87-1.57.22-.59.46-1.16.73-1.71,2.81-5.25,7.63-8.88,11.37-13.36,2.57-2.77,4.65-5.98,5.47-9.69,1.3-5.59-.06-11.67-5.94-13.85-3.52-1.39-7.65-.72-10.65,1.6-1.53,1.15-2.77,2.65-3.81,4.27l-.13-.07Z"/>
        <path class="cls-9" d="M38.9,39.61c-3.23-2-6.61-3.71-9.79-5.84-6.81-4.28-10.68-12.88-6.7-20.41.95-1.74,2.33-3.28,4.06-4.28,3.39-1.96,8.03-2.05,11.17.45,1.54,1.2,2.72,2.79,3.44,4.57l-.13.05c-2.22-4.41-6.67-6.72-11.48-5.26-6.47,1.7-8.88,9.75-6.52,15.55,1.9,5.41,6.87,8.61,11.55,11.49,2.42,1.51,4.85,3.01,7.16,4.71,1.02.76,1.91,1.7,2.62,2.76-.07.19-.14.39-.2.58-1.25-1.89-3.21-3.21-5.17-4.35Z"/>
      </g>
      <path class="cls-7" d="M46.48,29.78c2.1-.84,4.01-2.19,5.49-3.88,1.06-1.3,1.79-2.73,2.75-4.09.32-.47.58-.98.99-1.47l.16.04c.45,3.87-2.79,6.88-5.97,8.46-1.08.51-2.21.91-3.38,1.1l-.04-.16h0Z"/>
      <path class="cls-1" d="M15.69,46.62s19.84,9.71,28.88,33.18c0,0-12.73,2.18-25.02-3.55-9.6-4.47-13.98-12-14.79-20.6-.82-8.64.16-16.27.16-16.27,0,0,20.67-3.07,32.14,9.52,8.43,9.26,9.14,24.13,9.14,24.13,0,0-8.07-21.96-30.51-26.41Z"/>
    </g>
    <path class="cls-12" d="M48.1,57.31s-2.44-11.31,5.26-18.85c12.19-11.94,28.04-10.21,28.04-10.21,0,0,3.57,20.49-10.34,29.31-10.79,6.84-21.36,5.63-21.36,5.63,0,0,4.65-21.2,22.21-29.32,0,0-13.47,2.53-23.81,23.43Z"/>
  </g>
</svg>