<?xml version="1.0" encoding="UTF-8"?>
<svg id="_Слой_1" data-name="Слой 1" xmlns="http://www.w3.org/2000/svg" viewBox="0 0 841.89 244.61">
  <defs>
    <style>
      .cls-1 {
        fill: #fff;
      }

      .cls-2 {
        fill: #ef800b;
      }
    </style>
  </defs>
  <path class="cls-1" d="M842.67,213.1C750.27-4.76,167.34,328.61-2,213.1V2.02h338.4c13.83,33.01,46.45,56.2,84.48,56.2s70.64-23.19,84.47-56.2h337.32s.78,212.92,0,211.08Z"/>
  <path class="cls-2" d="M844.24,215.63c-45.41-106.21-212.17-73.26-302.61-56.77-99.79,19.8-197.85,47.64-297.77,66.93-67.29,12-154.64,27.08-219.76,2.73-8.64-3.34-16.89-7.66-24.53-12.89,7.71,5.09,16.02,9.27,24.69,12.46,82.55,29.9,215.15-3.71,300.44-22.34,72.07-16.76,143.73-35.42,216.41-49.56,54.46-10.37,109.88-19.17,165.52-16.87,56.38,2.32,114.51,19.59,137.61,76.31h0Z"/>
</svg>